<?xml version="1.0" standalone="no"?>
<!DOCTYPE svg PUBLIC "-//W3C//DTD SVG 1.1//EN" "http://www.w3.org/Graphics/SVG/1.1/DTD/svg11.dtd" >
<svg xmlns="http://www.w3.org/2000/svg" xmlns:xlink="http://www.w3.org/1999/xlink" version="1.1">
<metadata></metadata>
<defs>
<font id="gourdie_gothic_blackblack" horiz-adv-x="930" >
<font-face units-per-em="2048" ascent="1638" descent="-410" />
<missing-glyph horiz-adv-x="570" />
<glyph horiz-adv-x="0" />
<glyph unicode="&#xd;" horiz-adv-x="570" />
<glyph unicode=" "  horiz-adv-x="570" />
<glyph unicode="&#x09;" horiz-adv-x="570" />
<glyph unicode="&#xa0;" horiz-adv-x="570" />
<glyph unicode="!" horiz-adv-x="364" />
<glyph unicode="&#x22;" horiz-adv-x="346" />
<glyph unicode="#" />
<glyph unicode="$" />
<glyph unicode="%" />
<glyph unicode="&#x26;" horiz-adv-x="710" />
<glyph unicode="'" horiz-adv-x="247" />
<glyph unicode="(" horiz-adv-x="491" />
<glyph unicode=")" horiz-adv-x="561" />
<glyph unicode="*" horiz-adv-x="719" />
<glyph unicode="+" />
<glyph unicode="," horiz-adv-x="510" d="M-29 -328q53 -6 99 18q29 29 70 47l18 17l53 47q29 18 41 35q82 53 122 111q41 140 -70 223q-53 88 -134 117l-12 -6q-29 -29 -53 -41l-11 -12l-94 -76l-18 -23q12 -29 59 0q170 -123 129 -293q-135 -64 -199 -164z" />
<glyph unicode="-" horiz-adv-x="689" />
<glyph unicode="." horiz-adv-x="422" d="M29 135l12 -18q41 -29 64 -58l41 -53q82 29 129 82l35 11l18 30q-47 70 -88 99q-18 29 -47 47l-53 -41l-17 -17q-59 -23 -94 -65v-17z" />
<glyph unicode="/" horiz-adv-x="522" />
<glyph unicode="0" />
<glyph unicode="1" />
<glyph unicode="2" />
<glyph unicode="3" />
<glyph unicode="4" />
<glyph unicode="5" />
<glyph unicode="6" />
<glyph unicode="7" />
<glyph unicode="8" />
<glyph unicode="9" />
<glyph unicode=":" horiz-adv-x="405" d="M12 129q12 -29 58 0l65 -65q18 -35 41 -58h17l53 41l76 58q41 129 -123 182l-12 -6q-29 -29 -52 -41l-12 -12l-94 -76zM29 743l12 -17q41 -29 64 -59l41 -53q82 29 129 82l35 12l18 29q-47 70 -88 100q-18 29 -47 47l-53 -41l-17 -18q-59 -23 -94 -64v-18z" />
<glyph unicode=";" horiz-adv-x="492" d="M-29 -328q53 -6 99 18q29 29 70 47l18 17l53 47q29 18 41 35q82 53 122 111q41 140 -70 223q-53 88 -134 117l-12 -6q-29 -29 -53 -41l-11 -12l-94 -76l-18 -23q12 -29 59 0q170 -123 129 -293q-135 -64 -199 -164zM0 743l12 -17q41 -29 64 -59l41 -53q82 29 129 82 l35 12l17 29q-47 70 -87 100q-18 29 -47 47l-53 -41l-17 -18q-59 -23 -94 -64v-18z" />
<glyph unicode="&#x3c;" />
<glyph unicode="=" />
<glyph unicode="&#x3e;" />
<glyph unicode="?" horiz-adv-x="829" />
<glyph unicode="@" horiz-adv-x="846" />
<glyph unicode="A" horiz-adv-x="1473" d="M0 -37v-35q18 -23 41 -29l12 12q53 35 82 64l29 41l53 47l11 17q23 29 35 59l18 12l17 23l24 29q41 41 58 76q59 -12 100 -35l76 -58l35 -18q35 -35 70 -52l76 -77l47 -11l70 11l35 24l18 6q29 18 47 35l35 23l23 18q29 18 41 35l18 6l111 99q57 -285 252 -285 q46 0 99 16l29 23q47 53 88 82v24q-164 6 -257 146l-6 24q-12 35 -12 64l-17 544l-6 41l-6 293l6 35l-12 403q-18 18 -53 24l-41 17l-23 6q-35 12 -64 12l-117 29q-47 0 -88 18h-275q-358 -181 -358 -429q0 -64 24 -133q105 41 164 123q-26 71 -25 135q0 83 43 152l41 5 q29 0 46 6l129 -6l94 -17q76 0 134 -29q105 -12 176 -41q18 -35 17 -65l-29 -46l-17 -30l-12 -29l-41 -70l-6 -18l-199 -304l-17 -18q-23 -35 -30 -41l-23 -29l-12 -23q-29 -29 -41 -47l-35 -47l-41 -29v-18q-29 -59 -58 -93l-18 -24l-17 -23l-24 -35l-17 -24l-30 -35 l-5 -11l-24 -30q-23 -41 -47 -64l-6 -12q-41 -53 -76 -82q-123 -246 -339 -357zM521 455l23 53q23 23 35 46l24 36l11 11l24 41q53 53 82 94l70 -18q65 -18 115 -18q13 0 25 1q56 -13 108 -13q63 0 121 19l11 -12v-47q6 -59 18 -94l-12 -35l6 -17q-6 -29 0 -35l-6 -18 l6 -117q-94 -117 -222 -152q-47 18 -76 41l-18 23l-211 152l-17 6q-53 29 -94 41q-18 6 -23 12zM831 888l17 29q18 12 24 24l29 46l12 12l88 123l11 12l59 99l23 29q23 59 59 94l11 -23v-76l-5 -24v-275q0 -41 5 -105l-17 -6q-35 0 -59 6q-47 0 -82 6h-17l-64 17 q-53 0 -94 12z" />
<glyph unicode="B" horiz-adv-x="1402" d="M0 1536q0 -18 12 -29l29 29q29 18 47 35l41 -6l82 -47l11 -11q53 -23 82 -47q18 -47 24 -82l6 -47l5 -41q0 -41 6 -105q-3 -32 -3 -59.5t3 -51.5l6 -217q3 -24 3 -44.5t-3 -37.5l6 -29v-88q0 -35 6 -58v-47q0 -88 11 -146l-11 -53q-41 -29 -65 -53q-35 -23 -87 -70 q-105 -64 -152 -146h17l59 35q47 35 87 53l65 -6q53 -18 93 -24q18 -6 24 -11h17l35 -18l59 -17q47 -18 76 -36q8 -23 8 -47q0 -12 -2 -23l-6 -23l-18 -47v-18l-52 -117q-29 -53 -41 -93q47 41 64 93q23 41 29 65l77 169q19 5 38 5q26 0 49 -10l30 -6l40 -12l141 6 q111 47 175 123q261 176 261 454q0 66 -15 137l6 17l6 41q-8 23 -8 44q0 11 2 21l-6 17v106l-6 17v35l-5 12l-12 64q-18 35 -35 53l-65 18q-31 10 -59 10q-21 0 -40 -5l-18 6l-70 12q199 181 211 369l-29 46l-30 12l-47 18l-87 46l-53 18l-76 6l-29 -18q-47 -23 -71 -52 l-17 -12q-41 -23 -73 -52.5t-62 -41.5q-6 29 0 41q3 38 3 71.5t-3 63.5q51 98 51 153q0 40 -27 57l-6 -11q-64 -123 -70 -234l-18 -41v-18l-17 -64q0 -99 -6 -141l-59 -58l-17 17q0 140 -24 229q-117 105 -251 134l-18 -11q-29 -23 -47 -30l-29 -23q-41 -23 -88 -64 q-47 -35 -70 -59zM439 331l6 11q82 82 111 170l6 35l-6 35v35l-6 12l6 12l-6 29v135l-6 35v152l-6 64l-6 82v129l65 70l6 -23v-24l-6 -64v-53q3 -18 3 -33.5t-3 -30.5v-65q17 -83 17 -140v-6q-29 -29 -46 -58q18 -12 46 -6l6 -47v-70q0 -41 12 -65l-6 -23q0 -88 -6 -123v-58 q-6 -70 -6 -117l-17 -41l-35 5q-70 29 -123 36zM679 325v82q13 50 13 92q0 16 -2 31v64l-11 23q12 18 14.5 38.5t-3.5 26.5l6 64l-6 129q94 117 223 146l35 -6q105 -6 170 -23q35 -35 52 -76q0 -47 12 -76v-47l6 -24v-128l6 -18v-205q2 -23 2 -45q0 -43 -8 -78l-6 -17 q-18 -64 -41 -105q-47 -24 -94 -24l-46 6l-36 6q-53 6 -93 29q-47 12 -82 29q-64 18 -105 47q-6 35 -6 59zM685 1279q-2 31 -2 58q0 50 7 88q47 70 100 111q187 -24 298 -135q-47 -222 -298 -357l-76 -64l-18 29v88q-18 61 -18 116q0 34 7 66z" />
<glyph unicode="C" horiz-adv-x="1461" d="M6 955q-4 -52 -4 -101q0 -355 220 -607q111 -135 246 -205l-6 -23l-58 -111q-29 -41 -41 -76q35 29 52 58l82 141h18q99 -35 181 -35l18 11l117 24q23 18 47 23l58 29l29 24l88 58l18 18l12 6l23 17q29 18 41 35q35 23 58 47l41 41q-6 18 -23 18q-194 -191 -392 -191 q-137 0 -275 91l12 29q12 70 29 112v82l6 11l6 41q-2 12 -2 28q0 29 7 72v70l6 23l6 47l12 65v64l6 41v70l6 35l5 29v112q6 59 18 99v18q-3 32 -3 59.5t3 51.5q64 129 175 187q199 -23 340 -135q29 -18 58 -23l47 47q29 53 76 88v35q-193 168 -404 168q-32 0 -64 -4 q-41 -47 -82 -65l-12 -11v-18l-11 -18q-18 -29 -29 -35l-41 -64q-27 -40 -39 -40q-10 0 -10 29q0 26 8 75v30l17 52q0 12 6 41q23 76 29 129h-23l-18 -35q-47 -76 -52 -106l-18 -40l-17 -77l-36 -163l24 -18q-8 -23 -8 -47q0 -12 2 -23l-12 -18q-29 -59 -58 -93l-6 11l-6 41 v141l6 17v65l6 11l6 94l46 164q29 29 47 58.5t-6 34.5q-12 -17 -35 -35l-17 -23l-30 -35l-93 -105q-421 -287 -433 -738zM176 1107q0 298 234 492q6 -12 0 -35l-18 -88v-23q-6 -47 -6 -76q-8 -35 -8 -65q0 -15 2 -29l-6 -59l6 -76q3 -88 3 -146.5t-3 -87.5q0 -47 6 -82 q-12 -35 -12 -64q0 -18 -5 -23v-94l-6 -18q2 -14 2 -27q0 -26 -8 -49l35 12l12 18q35 47 52 82q42 104 42 198q0 12 -1 24q6 23 6 58q13 62 13 113q0 17 -1 34l47 87l11 41l12 -23q-8 -35 -8 -68q0 -16 2 -31l-6 -18l6 -41v-105l-6 -35l-17 -30v-17q6 -35 6 -74.5t-6 -83.5 l-6 -29v-24l-12 -117v-99q2 -23 2 -45q0 -62 -13 -113q-187 146 -275 333q-84 195 -84 384q0 60 8 119z" />
<glyph unicode="D" horiz-adv-x="1794" d="M0 94h23l24 11q53 47 105 65h117q41 -18 76 -18q47 -23 88 -29l23 -6q76 -29 129 -41q12 -18 12 -35q-18 -47 -24 -82l-5 -47l-6 -35q-18 -41 -18 -70l-17 -53v-35l-12 -23v-18l-12 -41l-11 -47l-47 -117l23 18l47 117q18 76 53 129q6 59 35 134q12 99 52 176q18 6 24 0 q-23 -82 -29 -135h17q23 76 59 129q135 -44 254 -44q292 0 483 266q204 189 204 439q0 37 -5 76l12 12q47 6 81 23q0 18 -5 24q-14 -2 -27 -2q-37 0 -67 13v24l-12 82v35l-6 23q-18 59 -17 100l-6 23v24l-18 64q-24 44 -24 83q0 8 1 16q-29 23 -47 53l-6 12l-23 29 q-41 70 -88 105q-212 112 -424 112l-196 -24l-6 24v29l12 17v59q24 68 24 124q0 12 -1 22q-29 -35 -58 -99q-12 -47 -24 -71q-23 -82 -58 -134h-18q-70 -12 -117 -29l-17 5l-47 -5l-228 17l-30 -35l-46 -82q-13 -26 -13 -46q0 -57 107 -57q28 0 64 4q12 0 40 6l106 11h17 q53 18 94 18l-12 -18l-64 -70q-82 -70 -123 -146q0 -18 12 -47q-19 -34 -19 -67q0 -7 1 -15q-6 -18 0 -47v-275l6 -64l-6 -24l6 -41l-6 -41q3 -32 3 -58t-3 -47q-18 -29 -17 -53l-12 -11l-29 -35l-76 -12l-41 -23q-18 -12 -47 -36q-35 -29 -65 -46l-29 -30q-41 -29 -64 -52z M415 339l6 12q35 35 47 64q59 64 82 129l18 182l-12 64v257q-2 36 -2 70q0 100 14 170l93 100q24 -18 12 -41l-6 -47v-117l-12 -41l-5 -82l5 -29l-5 -65q-12 -53 -12 -93l6 -29l-6 -30v-23l-6 -12l6 -29q-6 -53 -6 -94v-58q0 -47 -6 -82v-100q4 -27 4 -52q0 -49 -16 -88 q-35 18 -64 23l-12 6l-64 18q-35 0 -59 17zM690 281q0 76 18 134q-2 25 -2 48q0 46 8 81v18l6 41v52l6 12l5 64l-5 18q3 24 3 44.5t-3 37.5l5 53l6 35l6 29v82l6 29v64q0 35 12 65l-6 41l6 23l6 146q18 29 46 36q18 -18 24 -36l-6 -17l6 -70l6 -12v-64q0 -105 -18 -176v-64 q-6 -12 -12 -41q0 -82 -17 -135q0 -47 -6 -82v-52l-6 -12l-6 -64q-6 -47 -11 -123v-35l-12 -41v-41q-18 -59 -18 -106l-29 -17q-18 12 -18 35zM772 240q0 35 6 58q6 12 12 36l6 29q6 53 17 93v47l12 29q-2 18 -2 34q0 33 8 60q-2 22 -1 43q0 63 13 115l29 18l23 -12h106 l35 6l23 -6h199l47 -6h41q59 12 105 12l24 -18q13 -90 13 -168q0 -317 -207 -458q-52 -7 -101 -7q-111 0 -209 36l-29 6q-64 12 -105 30q-41 6 -65 23zM848 884q50 17 90 17h4q27 -8 52 -8q12 0 24 2l246 -6l47 -11h134l18 -18q-35 -23 -65 -23q-47 0 -81 -6l-94 6 q-43 -8 -78 -8q-18 0 -33 2q-16 -2 -30 -2q-29 0 -52 8h-59l-23 -6q-26 3 -50 3t-44 -3q-12 29 -6 53zM866 942l6 135l6 23l6 23l11 100v18q0 41 6 70q-5 28 -5 54q0 39 11 74q433 -17 515 -397q21 -45 21 -88q0 -18 -4 -35l-35 6h-64q-76 0 -129 11h-210q-27 -2 -51 -2 q-49 0 -84 8z" />
<glyph unicode="E" horiz-adv-x="1827" d="M0 183q35 0 59 12l35 11h17l35 18q47 6 82 17q47 23 88 24q41 -29 53 -47l23 -23l12 -6q53 -59 93 -88q59 -23 76 -35q64 -18 106 -53l-12 -93l-6 -12q-23 -53 -29 -100q-18 -41 -18 -58q-35 -70 -41 -123q12 12 18 26.5t12 20.5l6 23l17 41q29 64 35 105l70 153l18 5 q38 -13 70 -13q12 0 24 2q404 18 655 339l-35 -6q-204 -176 -419 -176q-136 0 -277 71l-6 41l11 35q6 12 12 41q0 99 23 170l6 23l-6 64q12 35 12 59v47q0 88 18 146l23 29q35 8 65 8q15 0 29 -2l199 -6q35 0 58 -11q29 0 47 5l18 -5h163q64 29 106 76q35 12 58 35l41 41 q99 53 152 128q-18 12 -41 6l-23 -23q-41 -23 -64 -47l-18 -12l-70 -35h-135q-35 0 -58 -6l-35 6l-35 6l-53 6q-43 -4 -81 -4q-76 0 -130 16q12 18 41 47l6 11q41 29 94 94l29 29l12 24l29 29l6 11q41 29 58 59l18 18l64 81l18 12q35 53 70 82l-12 35l-64 -12l-82 12l-99 35 q-99 47 -199 47q-53 -29 -88 -70l-94 -88q-17 49 -17 92q0 92 76 160q-29 12 -47 0v17q18 56 18 100q0 12 -1 23l-11 -17l-18 -35q-23 -82 -58 -141q-53 -35 -82 -70q-70 -41 -111 -100l-41 -5q-404 -240 -410 -650q-3 -41 -3 -80q0 -260 132 -458l-6 -35l-64 -36 q-53 -12 -94 -35q-76 -23 -123 -58zM427 1359l29 23l6 12l123 117l-35 -105q0 -18 -6 -53l-12 -93v-41q-5 -45 -5 -82v-12v-100q3 -14 3 -33.5t-3 -42.5v-163l5 -65l-5 -35q0 -53 -6 -94q-12 -82 -59 -134q-144 250 -144 491q0 209 109 410zM497 411l24 41q146 135 169 310 q23 53 77 70q4 -26 4 -50q0 -50 -16 -90l6 -41v-35q-12 -47 -12 -76q1 -16 1 -31q0 -44 -13 -75q1 -16 1 -32q0 -91 -30 -161l-23 12q-53 29 -82 59q-70 53 -106 99zM702 844q-8 55 -8 107q0 148 61 273l12 -41v-64l5 -17l6 -194q-41 -41 -76 -64zM702 1295q-4 39 -4 75 q0 155 80 264q6 -12 6 -41l-12 -29q-13 -76 -13 -134q0 -23 2 -42zM848 1014q0 47 12 76q-6 29 -6 70q-2 16 -2 30q0 29 8 52q-13 57 -13 108q0 38 7 73q29 47 65 71q47 -6 82 -18q59 -12 99 -35l59 -18l35 -5q47 0 76 -12l-18 -24l-129 -146q-29 -41 -52 -64 q-35 -35 -53 -59l-47 -47l-17 -23l-24 -18q-29 -41 -58 -64q-23 23 -24 53z" />
<glyph unicode="F" horiz-adv-x="1549" d="M0 18q82 23 135 81h17q35 -18 65 -23q129 -70 251 -76q298 146 375 427l-6 24v23l-6 35l-24 129l-5 23l-6 47q0 23 -6 41t-12 58q-6 29 -11 59l-18 64l-6 53q6 18 12 23q53 0 88 -23l5 -35q18 -53 18 -94l12 -58l6 -41l5 -41l6 -146q42 -96 42 -192q0 -39 -7 -78 q23 29 24 65v76q0 53 6 82l-18 181l-6 65l6 23l-6 17v170l18 18q49 -6 96 -6q131 0 243 47q47 29 76 58q76 23 111 82q-116 -49 -225 -49q-22 0 -44 2l-11 6l-246 18l-29 17l-6 41q2 37 2 66q0 58 -8 86l6 65l-6 210q-8 25 -8 47q0 44 31 76h18q82 -23 134 -29 q105 -52 199 -52q150 0 269 134l-99 -12q-180 88 -321 88q-120 0 -211 -64l-18 17v35q3 26 3 50t-3 44q23 70 29 111q6 18 -11 18l-36 -59v-17l-23 -41q-29 -105 -59 -170v-64l-11 -12q-41 -23 -65 -47l-52 -47q-70 -47 -111 -99q-47 -128 -47 -251q0 -74 17 -147l-17 -18 l-18 -6l-23 -17l-94 -59l-17 -17l-35 -29q-47 -29 -77 -59v-17q29 0 47 5q91 96 200 96q17 0 34 -2l18 -41v-76q0 -23 12 -53q6 -53 17 -93q0 -18 3 -32.5l6 -29t9 -20.5v-35l6 -18l5 -47q12 -35 12 -64v-18q6 -35 12 -41l6 -35q6 -70 17 -117q-6 -64 -17 -105l-35 -41h-36 q-29 18 -58 18q-35 18 -64 23q-94 53 -182 58q-176 -94 -269 -239zM731 1615l12 12q35 23 53 47q11 -6 11 -18l6 -23l-6 -30l6 -35v-47q8 -35 8 -65q0 -15 -2 -28l6 -65q5 -47 5 -88q0 -62 -11 -111l-82 6q-34 123 -33 239q-1 106 27 206z" />
<glyph unicode="G" horiz-adv-x="1518" d="M0 724l6 -12q12 -293 140 -515q164 -146 346 -187l-6 -52l-6 -41l-12 -65v-23l-6 -12l-17 -88l-6 -46l-6 -41q12 6 12 17q12 41 17 82q6 47 18 76q0 41 17 76q0 70 30 123h10q85 0 85 -70q0 -27 -13 -64h17q6 70 18 117q298 6 497 175q146 70 228 181l-6 65l6 12 q18 94 18 158l6 17q0 29 5 47l-5 64l5 18q-6 12 0 41v105q-18 59 -17 105l-29 41q-35 -6 -59 0l-123 24h-47l-23 6l-17 -6l-24 6l-41 5q-21 -2 -40 -2q-38 0 -65 8l76 59q41 23 47 35l17 18q12 6 41 29t35 29l59 53l12 6q53 53 64 58l29 35l6 12q53 82 94 129l-6 35 q-14 -5 -30 -5q-24 0 -52 11l-59 17h-17l-35 12q-23 0 -59 6l-23 11l-88 24q-47 0 -76 6l-53 -18q-41 -18 -70 -23v17q6 21 6 38t-6 32q13 40 13 76q0 12 -1 24h-18l-12 -29v-18q-18 -35 -29 -94l-29 -111q-23 -29 -41 -41q-12 12 -12 24v70l6 47v64q0 29 -6 47q8 31 8 60 q0 14 -2 28q-6 23 -23 35l-18 -35q-41 -76 -52 -141l-176 -169q-432 -200 -432 -595q0 -44 5 -90l-6 -12v-111zM193 859q-11 74 -11 144q0 191 81 353l24 23q59 59 111 94l6 -17l-6 -18l-18 -105v-18q-3 -21 -3 -38t3 -32l-11 -35l5 -24l-5 -76v-286q-6 -23 -6 -59 q-12 -47 -12 -88q-23 -105 -76 -181l-18 17l-11 41l-18 53l-11 41l-6 29l-12 47zM287 443q111 111 158 234l35 65q0 41 17 105q0 64 18 111v158l6 12q-6 38 -6 71.5t6 62.5l17 24l59 76l17 -12v-70q2 -17 2 -32q0 -27 -7 -50v-88q0 -59 -6 -99q-6 -23 -6 -46.5t-12 -53.5 l-53 -52q18 -18 47 -6l-6 -47l-11 -94v-35l-6 -11q0 -64 -12 -106l12 -17l-6 -12q-6 -53 -18 -94q3 -30 3 -58q0 -83 -26 -152q-158 76 -222 216zM532 1344q-7 38 -7 74q0 124 78 219l6 -18l5 -175q-35 -64 -82 -100zM550 215v35l6 24q12 47 12 76l17 64l6 64l6 47v35l12 59 v105q13 50 13 89q0 15 -2 28q23 47 53 70q29 1 47 -5v-71q-6 -59 -6 -99q-12 -29 -12 -53q-12 6 -23 0l23 -17q0 -59 -41 -82q6 -23 24 -35q-6 -47 -6 -82q0 -18 -12 -47l6 -12q-6 -12 -12 -41q-6 -105 -29 -175q-47 6 -82 23zM568 -405l5 17l12 18v35l18 59q6 82 17 128 l-11 6q-12 -41 -12 -82q-30 -90 -30 -158q0 -12 1 -23zM650 1040q6 12 5 41l18 64l6 100q0 29 6 47l5 41l-5 29l5 76l47 29q12 -5 12 -17v-59l6 -23l-6 -65v-58l-6 -18q8 -40 8 -76q0 -48 -14 -88v-40l-82 -59q-8 26 -8 49q0 14 3 27zM667 186v23l6 41l6 35l11 24l6 46l6 41 l6 41l-6 12q18 53 24 94q39 17 72 17h4l23 -6l228 6l12 -6l135 -5q5 -42 5 -83q0 -94 -29 -181q-18 -41 -41 -64q-151 -58 -293 -58q-89 0 -175 23zM726 590q6 53 29 87l23 -6q20 -2 37 -2q36 0 63 8h35q23 -3 44 -3t38 3q59 -11 111 -11t99 11q5 -22 5 -43q0 -29 -10 -56 l-30 -6zM749 718q12 146 29 199l129 -17h23q12 6 23.5 3t41.5 -3l41 -6q76 -18 128 -18q29 -64 30 -123q12 -18 11 -41h-187l-17 6h-170q-43 -11 -71 -11h-5zM790 1046q-6 26 -6 50t6 44l23 81v18l-6 29l6 65v117q18 23 35 29l47 -18h18q88 -23 146 -23l24 -12l93 -29 q-158 -240 -386 -351z" />
<glyph unicode="H" horiz-adv-x="1426" d="M0 1409q0 -35 29 -24q18 18 53 35l29 30q29 18 41 35l41 23q35 12 59 29q18 3 34 3t30 -3q55 6 108 6q144 0 272 -46l-6 -12q-111 -94 -158 -211v-17q-9 -54 -9 -96q0 -12 0.5 -23.5t0.5 -22.5q0 -38 -9 -75v-111l6 -18q-6 -47 -6 -82q1 -26 1 -50q0 -72 -13 -125l6 -41 v-59q-6 -70 -6 -119.5t-17 -90.5q-35 -47 -53 -82l-23 -18l-117 -58q-47 -41 -88 -59q-18 -23 -18 -47l41 6q59 -18 100 -23l11 -6l65 -12q53 -23 99 -29q73 -32 138 -32q19 0 38 3l35 17q135 35 228 117l29 36q-75 -14 -147 -14q-170 0 -321 78l47 47l23 35l6 17l24 24 l23 35l12 35l41 70l-6 24l12 41l-6 17q0 47 6 82l-6 29q17 89 17 141v6q35 70 94 111q6 -12 6 -41q-12 -50 -12 -95t12 -87q-3 -18 -3 -34t3 -30l-12 -29q2 -27 2 -51q0 -48 -8 -84v-17l12 -41v-123l-6 -35q29 53 29 99l6 59l18 210q6 12 11 41q0 47 12 111q3 18 3 34t-3 31 q12 76 12 129q6 35 23 58l41 23h18q59 -6 99 -17l18 -6l17 6q29 -18 47 -18q23 2 43 2q38 0 68 -7l-5 -18q0 -59 -12 -99v-100l-6 -23q0 -88 -6 -147l6 -35q-6 -29 0 -52l-6 -24l6 -29q1 -29 1 -56q0 -81 -13 -143q4 -31 4 -59q0 -14 -1 -26q-3 -38 3 -44l-6 -23l6 -24 l-6 -23q0 -47 6 -76q-6 -47 -6 -82v-176q-18 -47 -17 -87l-6 -18q-41 -88 -53 -146l-12 -12l-76 -58q0 -23 18 -35q164 94 246 228q18 59 41 99l6 18q6 47 14.5 73t14.5 79v94l17 29q-12 23 -11 41l11 357q0 53 -6 82l6 41l-6 52v100l6 23q0 35 -6 59q0 47 12 123l-6 17 l6 117q29 64 76 105l6 47q-18 -2 -38 -2q-40 0 -91 8q-59 0 -99 12q-64 6 -111 23l-117 -12l-65 -40q-47 -35 -82 -53v29q-1 19 -1 37q0 54 13 98q-12 52 -12 100.5t12 92.5q-5 28 -5 53q0 38 11 70q35 29 41 64q-23 6 -41 23v36l12 35q0 41 6 70q-3 18 -3 34t3 30l-18 6 l-12 -17l-35 -88q-18 -82 -41 -135h-29l-35 12q-47 0 -123 12l-41 5l-41 6h-105q-275 -94 -445 -292zM696 1245q6 12 12 41l6 41q6 53 17 88l18 11q23 35 58 65l6 -30l-6 -29v-164l-5 -23l5 -18l-5 -46q2 -29 2 -55q0 -52 -8 -92l-88 -88l-6 24q-3 18 -3 34t3 30z" />
<glyph unicode="I" horiz-adv-x="1388" d="M0 95l47 18q82 76 175 93l12 -6l94 -35q172 -172 376 -172q25 0 51 3v-18l12 -35v-18q-12 -53 -12 -93l12 11l5 41q6 76 24 129l17 18q82 47 129 111q53 35 76 82l12 12l35 23l53 111l5 35v41l6 18v169l-6 24l-5 263q0 35 -6 59l6 17l-6 240l6 29q6 82 29 135l6 53 q53 105 146 152q29 29 35 58h-41q-98 -83 -225 -83q-70 0 -149 25l-12 58q12 37 12 71q0 61 -41 111l-24 -30l-17 -64q-35 -53 -41 -111l-88 12q-67 16 -131 16q-53 0 -103 -11l-47 -23l-181 -123q-76 -64 -123 -93l-24 -18l-23 -23q-64 -41 -76 -59q16 -16 47 -16 q24 0 58 10q118 -72 220 -72q146 0 260 148q-41 -12 -78 -12q-69 0 -127 42q-70 18 -117 52q47 41 100 59l64 -6q41 -6 55.5 -6t20.5 -6q41 -6 70 -17h41l12 -6l193 -47v-64l-6 -18l-11 -117v-29q3 -26 3 -49.5t-3 -44.5v-257l-6 -35v-41q3 -35 3 -64.5t-3 -52.5v-82 q-6 -18 0 -30q-12 -59 -12 -99q-6 -59 -6 -100l-6 -52q2 -20 2 -39q0 -54 -13 -102q-47 12 -76 30l-12 11l-35 24l-18 6q-23 23 -52 35q-35 29 -76 46q-41 29 -71 41q-47 0 -76 12q-129 -41 -210 -134q-94 -53 -135 -141zM807 159q6 18 0 36l6 81l6 18l-6 29q25 90 25 154 q0 11 -1 22q12 35 11 64l6 18l12 205q14 79 14 138q0 20 -2 37l6 193l5 18l-5 23l5 29v36l6 11v147l12 17q59 0 105 18q6 -12 0 -24l-17 -47q-6 -23 -24 -58q-35 -105 -41 -176l6 -41v-58l-6 -12l6 -29l-6 -100l6 -11q-8 -31 -8 -61q0 -15 2 -30q3 -22 3 -53.5t-3 -72.5 q8 -47 8 -86q0 -20 -2 -37v-17l6 -47v-176l-12 -70q-33 -94 -92 -94q-15 0 -31 6z" />
<glyph unicode="J" horiz-adv-x="1689" d="M0 26q0 -18 18 -17l64 41l35 29l18 6l111 64q94 -29 152 -76l12 -17q35 -41 52 -71l158 -123q41 -18 70 -46q115 -75 207 -75q67 0 121 40l24 -6l-12 -129q-12 -47 -12 -82l6 -17l-6 -18v-41q0 -88 -6 -146l18 29l6 58l6 24v58l5 30v52l6 24v23l24 146l23 24l35 23 l100 88q29 29 46 41l24 23q47 29 76 59l17 41q41 47 53 105l18 29q11 54 11 94v6l6 310q-8 35 -8 65q0 15 2 29v169l-5 18l-6 35l-6 298l6 41l6 65l5 17l47 94l24 29q29 47 64 76q47 35 70 76q-76 -12 -123 -52q-32 -2 -63 -2q-148 0 -264 48l6 30q0 29 5 47v146h-17 l-35 -70l-41 -147q-75 12 -144 12q-231 0 -406 -135q-64 -35 -100 -64q-104 -92 -104 -107q0 -2 3 -2q14 0 72 33l35 -6q64 -41 111 -58q83 -68 171 -68q48 0 98 21q149 81 149 102q0 6 -16 6q-20 0 -62 -9q-146 41 -240 135q67 8 131 8q154 0 290 -49v-105l-18 -117v-305 q-6 -18 0 -52q-3 -21 -3 -40t3 -36q0 -47 -5 -82v-176q-12 -35 -9 -55.5t-3 -26.5v-41l-6 -23q0 -64 -12 -106l6 -23q-6 -35 -6 -58v-117l-5 -47q-18 -70 -18 -123l-18 -18h-58q-53 29 -88 41l-12 12q-64 35 -99 64l-105 76l-30 30l-17 11q-35 47 -61.5 67.5t-38.5 38.5 l-123 46q-41 -6 -70 -17l-23 -23q-35 -12 -76 -47l-12 -6l-64 -47q-18 -12 -24 -17l-17 -12q-82 -53 -129 -100zM1094 -73l6 35l6 29l17 129q6 47 18 82q0 105 23 175q-3 35 -3 64t3 53v36q6 12 6 41l12 35v29l12 99q0 47 6 82l5 111q0 29 -5 47v135q12 35 11 58v82l-6 12 l6 29v106q6 47 35 64l170 -6q-35 -35 -53 -70l-11 -12l-24 -41q-18 -59 -35 -88v-17q-23 -82 -23 -146v-194q8 -39 8 -70q0 -16 -2 -29v-29q8 -30 8 -55q0 -14 -3 -27v-24l6 -41l6 -35l6 -99l-6 -24q0 -35 6 -58v-41q-2 -21 -2 -40q0 -38 8 -65q-8 -43 -8 -78q0 -17 2 -33 q-47 -164 -187 -229z" />
<glyph unicode="K" horiz-adv-x="1594" d="M0 56q35 -6 59 5q82 -29 140 -29l29 -17q64 -23 106 -53l46 -18l41 -17h35q53 18 94 23l12 -76l6 18l11 70l30 18q53 23 81 52q53 29 94 70l-12 18q-79 -48 -152 -48q-8 0 -17 1l-12 24v52q0 29 6 47l6 146q6 35 11 88l6 187l47 41h18q106 0 187 -64q47 -53 70 -100 l29 -70l18 -29q6 -18 23 -53l35 -64q53 -99 82 -170l30 -35l17 -35l12 -29q35 -47 47 -82q29 -64 35 -82q23 -76 64 -129q47 -25 93 -25q95 0 182 107v24q-76 29 -117 87l-17 35l-18 36l-18 40q-29 53 -41 94l-52 88q-6 18 -12 23l-17 30q-29 64 -59 105l-94 187l-11 12 q-29 94 -76 158l-12 6q-70 70 -152 99l6 12q82 53 123 123q111 84 111 174q0 86 -100 177q-47 53 -105 58l-53 -47q-29 -18 -47 -35l-29 -29q-29 -18 -52 -47l-106 -111l-11 12l11 152q0 47 6 82v58l6 12q0 41 6 105q12 29 23 47l41 6l176 -6q12 -6 23.5 -8.5t40.5 -8.5 q29 0 70 -18l82 -6q104 -42 194 -42q12 0 23 1l11 6q88 41 147 94q-6 29 -30 41q-23 0 -40.5 5.5t-35 5.5t-23.5 6l-41 6q-35 12 -59 12q-35 6 -58 17l-64 6l-18 12h-41l-17 6l-36 6h-46q-35 8 -65 8q-15 0 -29 -2q-129 -29 -205 -77l-12 18l6 18v35l6 17v141h-17 q-76 -120 -76 -240v-18l-12 -11l-105 -77q-76 -47 -118 -81q-23 -47 -52 -77l-24 -76l-5 -35l-6 -64l-6 -18v-41q-8 -47 -8 -80q0 -17 2 -31l6 -70q-64 -176 -187 -275q-18 -23 -18 -47q117 -6 205 -47q3 -12 3 -28t-3 -36q8 -35 8 -68q0 -16 -2 -31q1 -12 1 -26 q0 -42 -13 -103l-12 -29l-35 -36l-82 -41l-11 -11q-88 -47 -135 -94v-17zM281 202l41 29l41 53l35 29l17 23q18 35 36 53v18l11 17q3 24 3 43t-3 33l6 24q-3 18 -3 34t3 30l-6 211l6 11q47 70 88 106q8 -31 8 -70q0 -19 -2 -41q-6 -53 -6 -94q0 -88 -6 -146v-100l12 -35 q0 -29 6 -47q-6 -35 -6 -58q1 -23 1 -45q0 -109 -25 -183l-41 17l-41 29l-35 6l-29 18q-70 12 -111 35zM468 904q-3 26 -3 50t3 44q-11 81 -11 157q0 166 52 311q35 41 70 58l18 -23v-35q-6 -18 -3 -32.5t-3 -55.5l-6 -53l-6 -76v-105q-13 -68 -13 -120q0 -20 2 -38 q-70 -76 -94 -94zM632 758q3 26 3 49.5t-3 43.5l12 147l23 35q18 6 23 17q70 99 129 147q129 -82 164 -211q-117 -158 -293 -211l-52 -41z" />
<glyph unicode="L" horiz-adv-x="1525" d="M0 177h18q64 29 122 35l18 -6l35 -6l41 -5l70 -24q59 -18 100 -23l29 -6l29 -6l24 -12l82 -29l46 -17l123 -41q29 -12 47 -24l41 -12q64 -12 111 -40l35 -6q70 -23 123 -24l12 6q211 41 345 152q-12 12 -23 12q-74 -26 -141 -26q-23 0 -46 3h-18l-158 52q-41 18 -70 24 l-305 105l-23 6l-58 23h-24q-41 18 -76 18h-23q-35 18 -59 23q-76 12 -129 29l12 12q59 41 94 82l11 18l12 5q29 47 59 71l93 41l30 23q99 41 158 99l5 12l30 35l46 82l18 35l18 47l5 12q12 64 41 105v18l18 29v18l47 134q6 41 23 64v18l12 18q29 129 47 169l6 18l52 99 q105 181 287 223q6 18 -6 29h-12q-503 -94 -591 -550l-17 -41q0 -23 -12 -53l-6 -41q-18 -41 -17 -76l-12 -17l-6 -41l-23 -70l-12 -18l-35 -135l-47 -93l-12 -12q-41 -64 -58 -76q-6 18 0 29l12 41l5 29q6 47 18 77l6 46l35 164v53l6 17v82l6 18l6 47q6 88 29 146l17 23 q23 47 44 73.5t38 38.5l111 93q-29 0 -46 6l-41 -12l-18 -11q-29 -12 -58 -36q-29 -18 -47 -23l-65 -41l-181 -82l-18 -6q-53 -29 -93 -35q-59 -41 -100 -58q-41 -29 -58 -65q12 -18 47 -11l46 17q41 18 59 29.5t47 23.5l41 17q64 18 105 53l6 -23q-64 -158 -70 -217l-6 -47 l-6 -11l-12 -35q-18 -82 -41 -129l-29 -24l-64 -35l-18 -17q-47 -18 -76 -47q-6 -35 6 -59l12 -5l35 -12q76 -12 128 -47q-6 -117 -46 -199q-23 -53 -53 -82l-12 -11q-29 -29 -58 -47l-41 -41l-35 -24q-76 -41 -123 -76z" />
<glyph unicode="M" horiz-adv-x="2355" d="M0 209l18 -6q82 -12 134 -35l88 -35q88 -18 146 -53l59 -17q70 0 117 -24q18 6 23 12h41l18 6q41 0 70 12l105 29l35 29l123 70v18q-100 -32 -193.5 -32t-180.5 32l-18 12q-29 6 -47 17h-17q-35 18 -65 24l-17 6q-47 12 -76 29l17 17l141 129l11 29q41 76 59 129v29 q23 82 23 117l6 47l6 65l6 46l18 65v23l23 100v17l17 70l18 18q53 41 105 64l12 12l158 94q29 -6 53 0l23 -35v-100l-6 -23v-82l-6 -18v-41q0 -76 -11 -129l-12 -11q-47 -70 -99 -106l-18 -11q-76 -41 -117 -76l-6 -24q48 10 93 10q80 0 147 -33q-6 -35 -6 -88 q-3 -24 -3 -44.5t3 -37.5l6 -17l-6 -12l6 -211q18 -53 18 -99l11 -12l41 -53l18 -11l35 -18q29 -29 53 -41l11 -12l70 -46q-2 -21 -2 -40q0 -38 8 -66q14 44 14 82q0 12 -2 24l12 11q111 47 181 123v24q-105 29 -170 99l6 129l6 17v106q8 27 8 52q0 12 -2 24q8 35 8 65 q0 15 -2 28l12 18l52 29q123 53 193 129q-6 12 -17 12q-68 -50 -136 -50q-43 0 -87 20l6 41l6 30l6 76l12 164q-3 32 -3 49.5t3 20.5l5 29l6 88l6 35q12 29 29 47h24q48 -19 92 -19q10 0 19 1l47 -17l35 -6l35 -6l47 -6l146 -12q-149 -195 -149 -408q0 -30 3 -60 q-12 -76 -12 -128q-3 -18 -3 -34t3 -31l-6 -17v-59l-6 -17q0 -29 -5 -59q3 -35 3 -64t-3 -53v-35l17 -158l18 -24l70 -70l17 -11l18 -24q35 -18 59 -41l64 -6q217 76 345 223v23q-105 -23 -175 -82h-18q-140 64 -216 170l-18 70v176l6 23q0 88 12 146l5 158q-2 21 -2 40 q0 38 8 66l6 64q6 99 41 176l12 23l41 58l11 12l18 24q47 47 82 70q12 18 12 35q-70 -29 -117 -35l-24 6h-23l-24 11h-41l-140 35l-47 6l-47 12l-70 6l-12 -6q-23 -6 -43.5 -17.5t-49.5 -35.5q-47 -47 -82 -70l-12 24l6 93q0 35 6 59v41q3 44 3 80.5t-3 65.5 q-94 -172 -94 -348v-21l-11 -93q-23 -59 -71 -94q-12 35 -5 59l5 41l-5 11q8 40 8 78q0 51 -14 98l-59 -12l-234 -6q-57 14 -101 14q-15 0 -28 -2h-64l-35 6l-41 6q-65 11 -110 11h-7q-112 14 -112 70q0 14 7 30l11 11l35 24q53 47 94 70v18h-23q-47 -29 -88 -35l-18 -24 l-64 -53l-70 -64q-47 -35 -71 -64v-70l12 -12q29 -29 82 -47l59 -6l76 -6l29 -6l175 -5l12 -6l170 -6l-41 -29q-64 -59 -135 -88l-17 -18l-35 -11l-18 -12l-29 -18q-29 -18 -47 -23l-41 -23l-17 -53l-12 -64l-18 -47q-6 -88 -41 -158l-47 -47l-46 -29l-12 -12 q-35 -18 -59 -35l6 -29h18l35 -18l12 -12q47 -12 76 -35q-6 -129 -65 -222q-18 -29 -46 -41q-25 4 -49 4q-86 0 -150 -51q-70 -23 -94 -82zM1211 601q-2 14 -2 26q0 25 8 44h7q42 0 69 -11q6 -41 6 -76.5t-6 -64.5v-46q0 -29 -6 -47q2 -21 2 -42q0 -57 -13 -105 q-29 29 -47 59l-6 35q-14 105 -13 181q-1 25 1 47zM1217 859l6 76q0 41 6 82q0 41 6 70l-6 35q29 70 82 117q6 -24 6 -54.5t-6 -68.5l-6 -76l6 -35l-6 -47v-123q-18 -6 -29 0q-35 6 -59 24z" />
<glyph unicode="N" horiz-adv-x="1897" d="M0 105q59 23 105 24q127 -120 239 -120q80 0 153 61q199 94 258 275v35q-6 18 -12 53q0 82 -12 135l-11 257l-6 35l-6 35l6 18l-6 23l-6 29q6 29 0 47q2 29 2 55q0 52 -8 92q-2 23 -2 44q0 145 73 195q6 -23 5.5 -43.5t5.5 -26.5l-6 -23q6 -29 0 -47l6 -23v-47 q-2 -29 -2 -55q0 -52 8 -91q-6 -53 -6 -94l6 -23q0 -47 -6 -82v-153q0 -70 -6 -117l6 -35v-82q0 -47 12 -111l12 -82l-6 -11q3 -26 3 -50t-3 -44q18 -51 18 -99q0 -30 -7 -59q18 18 18 35q0 70 12 117v141l6 29v450l5 18l-5 29l11 106q0 47 6 81v129l6 24v140q2 35 2 66 q0 62 -8 110q12 29 35 41l24 -30l52 -47l30 -17l41 -41q35 -29 64 -41l35 -35l18 -12q12 -23 46 -47l53 -46q29 -18 59 -59l29 -29l12 -6q23 -47 64 -70q82 -188 82 -345q0 -332 -369 -527q-35 -23 -52 -59q18 -12 32 -14.5t44 -8.5l64 -12q35 -12 58 -11q35 -6 59 -18h18 l40 -12q59 -12 100 -29l41 6l53 17h17l59 30l17 6l70 35q47 35 76 70h-17l-123 -24l-82 18l-29 12q-12 0 -41 6l-35 11l-24 6l-41 12q-64 6 -105 23q351 273 351 606q0 167 -88 348l-11 12q-35 47 -65 70q-64 70 -87 82l-94 93q-29 18 -41 41q-18 6 -35 24l-23 17l-36 24 q-41 41 -76 58q-35 35 -35 82h-17l-30 -17l-58 -41l-24 -18l-23 -17q-41 -18 -64 -41l-12 11v141h-23q-60 -86 -60 -181q0 -9 1 -18l-12 -29l-11 -12q-135 -64 -223 -164l-6 -23l-11 -30v-17q-6 -35 -6 -59q-3 -20 -3 -38t3 -32l-6 -17v-47q-18 -47 -17 -88l-36 -53l-17 -11 l-24 -24l-105 -82l6 -23q29 0 47 -6q63 -45 122 -45q18 0 36 4l11 -12v-82l6 -29l6 -41l6 -205q19 -67 19 -119q0 -11 -1 -21q-18 -41 -53 -64q-18 0 -23 5l-30 12q-41 29 -82 47q-64 41 -117 53q-23 0 -64 -12l-193 -111zM930 767l12 -12q23 -29 47 -47q23 -18 45 -18 q28 0 54 30q82 35 106 105q-88 94 -193 123q-130 -73 -130 -123q0 -34 59 -58z" />
<glyph unicode="O" horiz-adv-x="1606" d="M12 671q12 -234 146 -403q193 -275 503 -275q13 -35 13 -67q0 -11 -1 -21q18 47 23 82l41 12h70l36 5q703 330 703 922q0 122 -30 255q-94 386 -562 450l-94 -70l-17 29l-12 6q-12 -88 -64 -135q-6 30 -6 58q0 77 46 141q-18 12 -35 12q9 35 9 68.5t-9 66.5 q-64 -94 -70 -188l-41 -41q-146 -111 -216 -263l-12 -41l-6 -64v-94q6 -29 0 -58l-6 -35q0 -53 -6 -94q4 -22 4 -43q0 -50 -21 -92l17 -52l-5 -30v-52q0 -18 -6 -24v-87q-25 -60 -25 -116q0 -10 1 -19q196 134 196 434q0 39 -3 81q41 59 77 94l5 -24v-187l6 -24 q0 -47 12 -81l-6 -65l6 -93q8 -27 8 -52q0 -12 -2 -24v-118l-6 -17q-6 -129 -6 -170q-421 176 -474 585q-16 91 -15 174q0 357 284 575l59 65l-41 -6l-24 -18q-35 -18 -64 -35l-35 -35l-23 -12l-24 -23q-47 -35 -70 -64l-18 -6q-29 -47 -70 -65l-6 -29q-142 -241 -142 -486 q0 -58 8 -117zM597 1163q-6 44 -6 86q0 152 82 271l6 -12l-6 -11q-19 -96 -19 -173q0 -17 1 -32q-29 -82 -58 -129zM708 168l12 82v47q0 29 6 47v58l5 12l12 105l24 -29v-35q1 -28 1 -54q0 -104 -19 -174q0 -29 12 -53q23 6 29 23v41q8 31 8 76q0 22 -2 47q23 105 23 176 q12 41 29 70q105 82 223 94q170 -23 240 -158l35 -18l-6 -47q-170 -334 -492 -339q-82 0 -140 29zM737 549v128l6 30l18 591l17 46l35 59q6 -24 6 -44.5t-6 -37.5l6 -140l-6 -36q0 -47 -11 -82l5 -17l-5 -29q-6 -53 -9 -91t-3 -102q0 -47 -6 -82q1 -21 1 -41q0 -97 -24 -170 q-18 6 -24 18zM837 648q-10 46 -10 88q0 53 16 99q64 -64 134 -93q-88 -35 -140 -94zM848 1046l6 29q-2 23 -2 45q0 43 8 78l-6 23l6 41q-2 45 -2 81q0 72 8 107q304 -47 433 -293q55 -81 55 -149q0 -114 -154 -190q-57 -17 -107 -17q-141 0 -227 134l-12 35zM1194 759 l29 29q99 70 152 153q16 -78 16 -153q0 -87 -22 -169q-82 94 -175 140z" />
<glyph unicode="P" horiz-adv-x="1497" d="M0 66q18 -6 23 0l117 93q76 59 129 88l47 -6q19 1 37 1q105 0 179 -30v-158l-5 -35l-6 -41l6 -35q0 -53 -6 -94v-17q3 -14 3 -30.5t-3 -34.5v-46q-6 -70 -18 -117q6 -35 24 -53q105 47 163 99q-2 29 -2 55q0 52 8 92v76l6 23l6 263q23 12 41 0v-111q18 -70 18 -135 q0 -38 -6 -75q6 6 17 35q0 47 6 79t6 61q0 82 12 135l17 6q35 -14 67 -14q11 0 21 2l12 -6q23 0 58 -6q38 -6 71.5 -6t63.5 6l35 -6q240 123 363 316l6 35q18 53 17 94v76q-6 35 -9 61.5t-8 79.5v93q-8 31 -8 57q0 13 2 25q-12 59 -12 100l-6 17v123l6 18q0 70 12 117l6 17 q23 29 40 59q23 47 47 70l6 12q18 29 35 46l-11 6l-18 -6q-53 -6 -88 -17l-82 12l-210 58l-12 6l-47 12h-17q-43 11 -71 11h-5l-12 -11l-35 -24l-12 -12l-117 -76q-5 28 -5 54q0 39 11 75v41l-18 12q-18 -47 -41 -76q1 -15 1 -30q0 -159 -118 -251q-70 164 -205 240l-93 -6 l-47 -29l-18 -18l-29 -12l-82 -76q-41 -23 -70 -58l-17 -12l-65 -70q12 -6 29 0l106 82q35 29 64 47q187 -41 234 -223l6 -76l-6 -35q2 -20 2 -37q0 -35 -8 -62v-35l6 -24l-6 -17v-170q6 -18 0 -24v-17q8 -47 8 -86q0 -20 -2 -37l6 -18q-14 -66 -14 -115q0 -16 2 -31 q-89 -17 -140 -17h-6l-23 -18q-53 -29 -82 -53l-12 -11l-29 -24l-29 -17l-88 -70q-41 -41 -76 -65l-41 -35zM720 382l6 134l-6 12q8 31 8 57q0 13 -2 25l5 35v105q0 47 -5 77v292l5 41l6 105l82 82q6 -12 0 -35v-164l-6 -35l-6 -41l6 -35v-35l-11 -35v-70l-12 -100 q-12 -29 -6 -52q0 -35 -17 -94q6 -18 0 -23v-94l-6 -23q0 -88 -12 -147zM807 358l6 100q0 47 6 70q-1 15 -1 30q0 58 19 105l6 41v87l5 12v111q18 47 18 82l12 29q3 56 3 94t-3 59l6 99l5 18l6 46l6 94q41 23 76 29l18 -6l93 -17q82 -41 158 -41q47 -23 94 -23l47 11 q35 23 64 24l-6 -12l-17 -29l-24 -35q-59 -76 -76 -147v-41q-13 -50 -13 -95q0 -17 2 -33l5 -158l6 -41v-47q0 -35 6 -59q0 -41 6 -70q0 -47 12 -88q-6 -29 0 -46q-6 -35 -6 -64t6 -53l-6 -18l-6 -41l-12 -35l-29 -29q-29 0 -47 -6l-17 6q-29 0 -71 5q-12 6 -41 6l-81 12 h-18l-18 12q-29 6 -58 6l-94 29q-18 0 -47 17z" />
<glyph unicode="Q" horiz-adv-x="1549" d="M0 619l12 -18v-17l11 -35v-18l24 -58q18 -99 58 -170l-6 -41l47 -18q170 -199 398 -234q89 -24 170 -24q174 0 310 112q70 35 117 47q29 -23 47 -47l6 -12l47 -52l35 -30l5 -11l36 -30l64 -58l99 -59q129 18 194 112q29 18 46 35l24 41h-18q-41 -29 -82 -30 q-82 53 -128 94l-24 23q-53 41 -82 82l-12 6l-29 29q-18 29 -35 47q-29 29 -47 59l12 11l29 36q41 35 65 64v18l23 35q47 70 64 122q15 94 15 181q0 328 -208 568l-41 41l-29 24l-35 23l-23 6l-24 24l-117 76l-82 29l-47 -35l-17 -18q-41 -53 -76 -82l-12 -17 q-29 -29 -41 -47l-29 -35q-18 -47 -53 -76l-6 23q0 111 12 182q0 47 6 81l6 53v47q-2 18 -2 35q0 49 13 88q0 29 -17 47l-53 -106q-6 -53 -23 -93l-12 -12q-59 -53 -88 -100q-502 -299 -502 -816q0 -50 5 -102zM275 467q-103 222 -103 418q0 316 267 565l6 -24l-24 -41v-29 q-35 -59 -41 -117l-11 -18v-46l-6 -18l-6 -41l-6 -35v-64l6 -24v-35l-12 -93v-82l-6 -30q0 -29 -5 -46q0 -88 -18 -147zM316 408q164 246 164 503l23 117q29 53 65 82l5 -29v-58l-11 -82v-30q-6 -47 -6 -82v-23q-21 -78 -21 -149q0 -47 9 -91l-6 -12v-105q-23 -23 -35 -53 q-18 -18 -35 -46l-41 -59l-12 6l-35 29l-6 12q-35 29 -58 70zM474 274q18 29 23 46l24 41q2 -31 2 -53q0 -66 -17 -66q-12 0 -32 32zM509 1099q-8 53 -8 102q0 99 31 184q6 105 59 176q6 -12 0 -24v-23l-6 -35l12 -82l-6 -18v-35l-6 -23q1 -22 1 -42q0 -61 -13 -104l-11 -12 q-29 -41 -53 -64zM550 338q12 140 140 193q217 -76 340 -263l12 -12q35 -23 52 -53l-70 -46q-79 -14 -153 -14q-148 0 -280 54q-60 22 -60 74q0 29 19 67zM568 490l5 129l6 29l6 41q0 47 6 82v17q12 35 12 71l23 164v17q19 86 19 150q0 13 -1 26l11 17l158 193 q528 -255 528 -743q0 -103 -24 -216q-23 -23 -30 -47l-6 -12l-23 -29l-234 246q-29 18 -47 23l-64 35q-205 -12 -304 -164z" />
<glyph unicode="R" horiz-adv-x="1767" d="M23 1q76 18 129 18l18 -6l41 -17q29 -23 64 -30l82 -41l123 -29l76 29l17 12l30 29l11 6l82 70q-6 12 -11 12q-18 -3 -36 -3q-43 0 -81 21v23l17 64q12 41 12 71l6 17l11 240l6 41l24 146q62 43 124 43l28 -2q117 -29 193 -87l6 -12l99 -111l6 -12l23 -35q29 -47 59 -76 q29 -53 88 -123l47 -64l5 -18q29 -29 41 -53l30 -41q59 -59 70 -82q35 -35 53 -58l52 -59q76 -94 135 -134q193 12 316 187v12q-64 -6 -111 -53q-41 18 -71 47l-46 47q-18 29 -36 41l-5 11l-182 211q-35 53 -64 82l-18 29l-93 117l-6 12l-29 41q-18 18 -36 47l-46 64l-18 24 q-35 47 -58 70l-88 76q-105 53 -200 53q-11 0 -23 -1l12 12l29 35q252 181 305 457l23 35l-6 64q-140 140 -310 158l-58 -41l-100 -93l-17 -24q-59 -53 -88 -105l-12 17v53q13 53 13 101q0 58 -19 110q-40 -52 -52 -111l-12 -12q-6 -35 -24 -59v-41q8 -41 8 -80 q0 -50 -13 -95l-12 -35q-35 -35 -53 -76l-6 -12l-23 -29l-12 29v22q0 162 -82 282q-54 115 -133 115q-94 0 -224 -162q-14 -35 -14 -47q0 -7 5 -7q14 0 74 72h35l64 -64l18 -41l70 -129l6 -53q0 -47 6 -117l6 -11l-6 -18q4 -27 4 -51q0 -12 -1 -22q-3 -32 -9 -91 q2 -27 2 -51q0 -48 -8 -83l6 -24v-47q0 -88 -12 -146l6 -18v-35q-6 -38 -6 -71.5t6 -62.5l-18 -65l-23 -29q-140 -59 -211 -170zM322 171l6 18q76 76 111 175l6 30q-2 37 -2 66q0 58 8 86q-2 17 -2 32q0 44 13 79v228q29 70 35 129l59 123l12 -41v-199q21 -66 21 -127 q0 -25 -4 -49q-35 -41 -64 -64q9 -18 22 -17.5t30 17.5l18 -12v-41l-6 -23l-6 -41l-6 -35l-11 -71q-6 -59 -6 -99q14 -56 14 -108q0 -79 -32 -149l-41 17q-18 6 -23 12l-23 6l-41 23zM650 803l5 29l-5 65l5 23v182l6 17q-6 29 0 59q3 18 3 34t-3 30q12 29 6 53q35 53 64 82 q35 41 65 64q29 0 47 6q140 -35 222 -123q-6 -82 -23 -135q-88 -275 -381 -415z" />
<glyph unicode="S" horiz-adv-x="1421" d="M0 673q42 -184 274 -184q63 0 141 14l-11 -11l-30 -36q-29 -18 -40 -35l-94 -82q-41 -29 -64 -52l-59 -53l-29 -53l11 -64q29 -23 59 -35l41 -18l88 -35h17l88 -23q140 -31 268 -31q400 0 680 306q115 107 115 227q0 52 -21 106q102 126 102 211q0 173 -424 173 q-60 0 -129 -3l23 23q41 53 82 82q41 64 65 76l11 12l47 64l12 12l23 35l6 12l117 105q18 23 18 47q-216 135 -443 135q-19 0 -37 -1q-310 -47 -468 -275q-193 -176 -234 -397q-140 -111 -205 -252zM222 720q-37 37 -37 73q0 39 43 79q29 -12 47 -24h23l30 -17 q76 -18 105 -29l18 5q35 0 58 -5q24 3 42.5 3t33.5 -3q32 6 61.5 6t55.5 -6l65 17h64l12 6l70 6q27 2 51 2q48 0 83 -8q129 0 205 -23q70 -35 100 -88q-18 -12 -30 0q-94 29 -169 29q-30 -3 -54.5 -3t-45.5 3l-29 -6l-176 -23q-41 0 -76 -12h-76l-17 -6l-53 -6h-82l-12 -5 q-20 2 -38 2q-36 0 -67 -8q-18 0 -32.5 3t-20.5 8h-23l-17 12q-64 0 -112 18zM263 304l18 18l35 29q29 35 70 59q35 47 70 70l12 6q35 35 59 46h35l23 6q76 12 129 30h58l41 5l147 18q122 0 210 -47q29 -18 47 -41l-35 -29q-53 -35 -82 -64l-53 -36v-6q0 -14 12 -14 q19 0 70 38l30 12l87 52q21 -46 21 -89q0 -101 -114 -191h-18l-29 -18q-70 -6 -123 -29l-23 6q-23 0 -59 -6q-32 -2 -61 -1q-83 0 -144 12l-146 -17l-18 35q-35 18 -70 18l-187 70q-12 35 -12 58zM386 1106q94 275 340 339h24q225 0 397 -105q-6 -12 -35 -41l-47 -64 l-18 -24l-23 -35l-18 -17l-23 -36l-35 -35l-12 -17l-88 -94q-85 -15 -159 -15q-178 0 -285 91q53 41 76 88q-53 -18 -82 -53z" />
<glyph unicode="T" horiz-adv-x="1246" d="M6 1242q18 6 23 12q18 12 47 41l23 5l106 94q18 6 23 12q41 53 88 76h18l76 17q35 0 67 3t55 9q52 -13 93 -13q13 0 25 1q49 -11 87 -11h6l-17 -30l-18 -5q-23 -23 -47 -35l-29 -24q-53 -47 -94 -70l-111 -111q-12 -35 -35 -59l-47 -99l-6 -24l-52 -146q-6 -129 -6 -170 l6 -17v-47l6 -18l5 -46v-41q12 -35 12 -65l41 -128q0 -12 18 -36l11 -29l12 -12l35 -64q-70 -41 -129 -47l-5 -29q99 6 163 29q182 -167 368 -167t376 167l11 18l12 6q99 70 152 140l6 41l-41 -12q-177 -209 -357 -209q-183 0 -369 215v24l6 11l18 41q41 70 47 135l5 29 l6 65q0 64 6 99v129l6 35l6 29l6 123l6 29v100q17 83 17 140v6l24 64q51 55 111 55q23 0 47 -8q12 -23 11 -41q-11 -70 -11 -121v-8l-6 -40v-59q-12 -88 -12 -146q6 -35 6 -88l6 -41v-135l-6 -23l-6 -64v-18q0 -41 12 -70v-18l-18 -146l12 6q6 41 17 64q6 59 24 141v70 q11 65 11 110v7l6 23v47l6 24l6 87v71q6 18 6 52l6 65l6 93l5 41q6 64 18 105h18q52 -8 89 -8q22 0 39 3q92 -14 179 -14q285 0 518 148l17 35l-23 -6q-29 0 -53 -17l-23 -6l-35 -6q-70 -6 -117 -17l-18 5l-140 6l-24 6l-17 -6l-24 6l-111 6q-76 0 -129 18q-14 -1 -27 -1 q-65 0 -113 24l6 23v106q-6 12 0 23l-6 187l-18 6l-23 -35q-12 -29 -41 -53l-6 -17l-35 -64l-29 -88q23 -12 47 6q6 -26 6 -50t-6 -44h-94q-61 7 -119 7q-131 0 -244 -36l-94 -41q-23 -23 -52 -35l-35 -24l-12 -11l-35 -24l-18 -6q-23 -23 -46 -35l-170 -158q-6 -18 0 -29z M556 464q-96 206 -96 396q0 240 154 452l-11 -41v-70l6 -12q-8 -31 -8 -60q0 -14 2 -27l-12 -30v-117l-6 -35l-12 -76v-23q-5 -45 -5 -82v-12l-6 -18v-111l-6 -17q3 -35 3 -64t-3 -53z" />
<glyph unicode="U" horiz-adv-x="1841" d="M0 88q18 0 23 6q35 12 53 29l111 53l100 -18q47 -18 82 -23l193 -71l35 -17l41 -6q75 -30 141 -30q11 0 23 1q70 -12 117 -12q76 35 134 35l6 18l18 17l35 12l11 12q23 23 53 35l12 6l29 23l64 41q99 -146 235 -187q199 76 321 222l-6 18l-58 -24q-59 -47 -111 -64 l-24 17q-88 59 -134 129q-30 60 -30 120q0 10 1 21v46l5 24v82l6 23v158q2 27 2 51q0 48 -8 84l6 64v88q6 32 6 59.5t-6 51.5l-6 64l-5 18l5 17l-5 24l-6 41v35l-6 17l-6 53l-6 12l-35 105q-43 14 -84 14q-76 0 -144 -49l-24 6q0 29 6 47q-5 42 -5 78q0 55 11 97 q-18 12 -29 12q-66 -127 -66 -253q0 -20 2 -40l-12 -11l-53 -41l-12 -6q-129 -94 -199 -199l6 -35l35 12l36 29q76 129 187 193q12 -18 9 -32.5t3 -43.5l-6 -12v-76l6 -53l5 -240q-5 -75 -5 -129v-17l-6 -12q2 -16 2 -31q0 -30 -8 -56v-106l6 -29v-88l-6 -23l6 -23l-12 -41 q-6 -47 -6 -82l-6 -12l-6 -47q0 -70 -5 -117q-12 0 -26.5 3t-20.5 9h-41q-59 18 -106 23q-59 12 -99 30l-23 5l-129 47l-41 18l-135 35q181 117 252 298l12 18l35 134v53l6 12l5 210l-5 24l-6 47q6 35 0 58q-6 64 -18 94v47l-17 117l-12 17l-23 53q-41 41 -77 58 q-47 0 -87 -17l-47 -29q-29 -18 -41 -36q-53 -29 -88 -64l-64 -64q-59 -47 -88 -88q12 -18 23 -12l36 24q76 94 169 134q53 -29 94 -76l17 -35q6 -59 18 -99l6 -77l6 -11q0 -41 5 -106l6 -17v-53l12 -76l-6 -35q0 -53 -12 -129v-41l-23 -128l-12 -18l-17 -47 q-12 -35 -53 -76q-35 -29 -70 -41q-35 -29 -64 -35q-18 -6 -24 -12l-52 -29l-36 -29q-35 -18 -58 -41l-18 -6l-17 -17q-59 -35 -88 -65v-23zM1077 193v41l6 12q0 64 17 140q0 29 6 47v29q12 35 12 88l11 41q-2 29 -2 55q0 52 8 91l12 176q12 53 12 93q-2 21 -2 39q0 34 7 61 v23q-2 20 -2 38q0 37 8 68q-3 18 -3 33.5t3 30.5q-5 33 -5 62q0 43 11 78q59 -11 88 -134l6 -12v-35l6 -47l5 -41l6 -58v-35q8 -35 8 -65q0 -15 -2 -29l-6 -70v-445l-6 -17l-5 -82q2 -21 2 -40q0 -38 -8 -66q-82 -82 -182 -111q-18 18 -11 41z" />
<glyph unicode="V" horiz-adv-x="1563" d="M0 1339q12 0 41 17q41 29 64 53q59 70 123 105q146 -95 146 -349v-20q10 -43 10 -82q0 -165 -179 -269v-23l41 -12l11 -6q47 -23 71 -46q41 -18 64 -41q10 -63 10 -122q0 -106 -33 -200l-24 -24q-18 0 -23 -5l-18 -12q-29 -18 -47 -35l-11 -6l-65 -47l-17 -6l-129 -99 l-12 -35q88 29 135 82l29 17q105 -18 176 -53q82 -23 129 -58q99 -12 158 -47v-23l5 -12l-5 -18v-117l11 24q-1 14 -1 28q0 69 25 118q35 -12 64 -12l18 -5l117 -18l29 18q23 0 58 11q64 35 106 47l23 18l111 76q281 158 281 445q0 42 -6 87l6 12q0 47 12 88l-6 398 q0 140 -23 228l-12 11q-23 18 -29 36q-70 106 -161 164q-76 49 -157 48q-17 0 -33 -2l-123 -111q-41 -35 -65 -70l-134 -146q-8 35 -8 65q0 15 2 28q0 111 12 182v152q6 44 6 82t-6 70q-18 -29 -24 -47q-18 -41 -35 -70l-29 -94q-6 -47 -6 -82v-152l6 -12q-6 -70 -6 -93 q-6 -12 0 -24l-6 -17v-117q-41 -88 -76 -129l-6 12l-12 64q0 263 -93 457q-47 47 -111 52l-18 -12q-64 -35 -105 -70l-12 -6l-29 -23l-100 -94l-17 -11l-88 -88v-23zM433 309l23 29l47 58q12 12 24 41l17 30l35 64v29q12 35 12 88q0 47 6 82l-6 18l6 204q41 99 64 135l6 -29 l6 -65v-58q-1 -29 -1 -56q0 -103 18 -172l-5 -30v-35l-6 -23v-88l-6 -12q3 -20 3 -37.5t-3 -32.5v-88l-6 -17l6 -12l-18 -105l-140 52q-47 12 -82 30zM696 215l6 59l6 35l18 222q8 37 8 67q0 17 -3 32l12 176l6 29v117l6 18v82l6 17l-6 35v170l47 65l17 17l6 12l135 134 q222 -34 333 -251v-18l18 -76v-99q-6 -70 -6 -117l6 -18l6 -187q-6 -35 -6 -59l-6 -41v-64l-6 -35l-6 -29l-6 -41q-6 -35 -11 -41l-6 -41v-35q-18 -35 -18 -71l-23 -52q-71 -98 -159 -98q-28 0 -58 10l-70 6l-47 17q-117 12 -199 53z" />
<glyph unicode="W" horiz-adv-x="1957" d="M-673 1309l35 6l18 18q29 29 47 41l64 64l58 12l12 -12l18 -41l11 -12l59 -128q12 -64 29 -112v-17q6 -35 6 -59v-111l-6 -12q6 -30 6 -56t-6 -49l6 -17l-6 -18v-181q0 -53 -6 -94l-6 -88q-6 -53 -17 -93q-29 -41 -53 -59q-129 -59 -199 -158l18 -6q58 19 108 19 q11 0 21 -1l152 -47q162 -99 301 -99q172 0 307 152q-29 0 -47 -18q-152 0 -263 59l-12 5l-35 12q-76 29 -123 59h-17l-135 35l6 17l12 6q23 23 47 35q41 59 76 94l6 12l17 41v35l12 17v76l6 30q3 26 3 49.5t-3 43.5q6 35 6 64t-6 53q11 43 11 77v5v94q0 105 24 175l-24 18 q-18 152 -87 257l-47 100q-23 23 -53 23q-52 -29 -105 -70q-35 -29 -100 -70l-64 -65q-29 -23 -47 -46l-12 -12l-23 -35v-18zM-47 1309q-28 -38 -28 -45q0 -1 1 -1q6 0 45 35q-6 12 -18 11zM-12 1344q-5 -35 18 0h-18zM0 718h29q101 67 202 67q75 0 149 -37q3 -18 3 -34 t-3 -31q10 -57 10 -109q0 -105 -39 -195v-29q-70 -64 -129 -94q-23 -23 -35 -53l12 -11q222 -18 386 -135l6 -18v-46q-6 -70 -6 -117l41 152q74 -45 150 -45q132 0 266 138l-6 18q-41 -6 -65 -23q-199 41 -327 158l29 105q-12 12 -12 23v59q3 18 3 33.5t-3 30.5q6 29 0 35 q6 32 6 58.5t-6 47.5l6 29l18 12q99 12 169 46l12 12q23 23 76 53q41 41 70 58v24q-95 -44 -184 -44q-76 0 -149 32l6 111l5 29v59l6 23v164q0 18 6 24l6 146l6 41l17 17q211 -123 316 -316l24 -99l-6 -12q6 -32 6 -68.5t-6 -77.5v-100q0 -59 12 -99v-29l-6 -12 q3 -20 3 -37.5t-3 -32.5v-47l6 -23v-65q0 -35 6 -58l-6 -35l6 -18l-6 -23q3 -44 3 -81t-3 -66q12 -29 41 -17q94 64 140 140v29q12 18 12 36v41l-6 17q3 12 3 29.5t-3 40.5q3 30 3 54.5t-3 45.5v123q0 47 -6 82v70l-6 12l6 52l-6 12q8 23 8 47q0 12 -2 23v47q4 37 4 71 q0 69 -16 128q-111 222 -292 351l-70 6l-18 -6q-47 -35 -82 -53q-29 -35 -70 -52l-6 64v18q2 20 2 37q0 35 -8 62q2 13 2 26q0 38 -14 68q-18 23 -40 29l-6 -12l-18 -52l-6 -12l-35 -100v-17q12 -35 29 -53l18 -99q-6 -29 -18 -47q-35 -41 -70 -59q-70 282 -204 282 q-91 0 -211 -130l-12 -11q-29 -35 -41 -59l-70 -82v-35l23 12l12 12l23 29q18 29 47 53q29 47 65 70q47 -6 76 -24q137 -223 137 -460q0 -36 -3 -72q-29 -18 -47 -24l-70 -35q-29 -18 -47 -23l-123 -76q-64 -41 -99 -76v-18zM392 326q158 152 170 345l17 41q29 1 41 -17v-18 q-8 -35 -8 -65q0 -15 2 -28v-59q13 -62 13 -119q0 -67 -18 -127q-100 48 -195 48q-11 0 -22 -1zM556 1333q35 41 64 64l6 -18v-70l6 -35v-58l-6 -30v-105l6 -47l-6 -41q2 -21 2 -40q0 -38 -8 -65l-52 18l-6 11q3 24 3 45.5t-3 42.5l6 18l-6 23l6 17v176q-12 53 -12 94z" />
<glyph unicode="X" horiz-adv-x="1534" d="M0 -111q18 -6 29 0l18 23q53 64 93 100q6 41 30 70q35 8 67 8q102 0 173 -84l58 -24l18 6l23 18q35 29 64 41l53 41l6 11l76 77q18 29 41 41q47 -181 205 -252l70 -47q351 111 503 410q40 61 40 116q0 19 -5 36l-11 -12q-88 -205 -252 -351q-59 -12 -99 -41 q-170 76 -252 217v17q-8 35 -8 65q0 15 2 29v17l6 41v41q-1 17 -1 33q0 79 24 143q170 0 275 105q64 47 94 105q-77 -43 -153 -43q-17 0 -34 2l-164 12q-7 50 -7 97q0 198 118 360q41 76 88 117l47 -6l41 -35l41 -35q47 -59 87 -94q164 6 240 170h-82q-129 164 -257 187 l-35 -24l-53 -52l-23 -35l-24 -24l-6 -11q-53 -64 -81 -117q-70 -82 -100 -141l-12 12q0 64 -17 111l-35 12q-59 88 -135 128q-99 117 -234 141l-53 -29l-58 -47q-29 -18 -47 -35q-59 -41 -94 -76l-17 -12l-47 -47l-6 -12l-117 -111q-23 -29 -29 -64q47 18 76 41 q18 29 41 47l76 76l12 17l117 82h58l24 -17q94 -53 146 -117q23 -23 53 -30l70 -93l29 -24v-17q6 -35 6 -67.5t6 -55.5v-35q0 -53 -6 -94q-47 -23 -88 -23l-70 -47l-35 -35q-47 -35 -70 -65q-70 -53 -106 -117h24q70 76 146 117q111 0 187 -35l6 -23q0 -59 -6 -100v-23 q-6 -35 -11 -82v-64l-6 -12q0 -53 -6 -94q-53 -59 -111 -81h-59q-140 76 -275 81q-234 -164 -310 -409z" />
<glyph unicode="Y" horiz-adv-x="1717" d="M0 1160q4 -1 8 -1l74 48q99 140 228 211q129 -41 182 -147q29 -41 35 -76l41 -99q6 -35 29 -88q23 -76 29 -135l-12 -11q-29 -41 -52 -65l-100 -88l12 -17q20 2 40 2q114 0 194 -61q12 -35 12 -58q41 -88 41 -164q6 -12 11 -35l6 -47l24 -117l-30 -53l-5 -17l-47 -64 l-35 -65q-23 -47 -53 -76l-100 -158l-11 -12q-29 -53 -70 -82l-12 -40l-88 -82q-47 -47 -47 -100q70 0 111 53l65 -6q59 0 99 -12l24 6h128l24 6l23 -6l35 6l223 -12q15 -15 15 -38q0 -12 -4 -26q-29 -53 -35 -100q170 135 199 322q-40 14 -76 14q-11 0 -23 -2h-217l-35 6 l-99 -6l-18 6h-58q-65 11 -110 11h-7q-12 6 -12 18q23 23 35 53l23 23l30 41q29 53 58 82l65 117q41 23 58 53l117 117q53 99 59 193l46 76q18 41 36 64l23 41l17 24l41 70l18 29l12 29l41 65l6 17q29 35 46 65l24 41l11 11l53 82q18 29 23 47l36 70l23 18l23 58l18 18 l29 58q35 47 53 88q70 59 99 117l-29 -6q-3 43 -22 43q-17 0 -48 -37l-35 12q-146 117 -293 140h-23q-30 -11 -53 -11l-64 -47l-47 -41l-41 -29l-129 -135q-23 -23 -35 -53l-12 -11l-17 -24l-24 -35q-12 -23 -29 -35l-11 12q-12 47 -36 76q-59 246 -280 281l-77 -35l-11 -12 l-24 -18l-35 -23l-146 -129q-18 -29 -47 -53q-76 -82 -111 -140zM848 932q0 23 6 58l30 88l5 41l12 35q18 152 94 258q35 23 64 35q164 -12 275 -117l70 -30l35 -17l-5 -12l-18 -29l-35 -64q-12 -18 -29 -47l-76 -129l-6 -17q-23 -29 -35 -59q-12 -18 -30 -47l-46 -76 q-18 -41 -53 -88l-135 -216l-11 23l-24 100q-6 47 -17 82q-6 53 -30 87q0 35 -17 65q-6 47 -24 76z" />
<glyph unicode="Z" horiz-adv-x="1408" d="M6 250q-2 -18 -2 -33q0 -31 8 -55l58 -76q363 -217 737 -222l6 -29q0 -41 -6 -106q18 29 18 47q6 53 18 94l11 12q82 23 135 76q222 111 310 321q6 18 12 24l6 29q0 35 11 94v281q0 41 -6 70v117q-3 35 -3 64.5t3 52.5l-23 12q-35 6 -94 11l-23 6l-222 23l87 82l18 12 q41 35 70 53q18 29 47 52l12 12l41 29l52 65l6 11q23 23 35 53l35 41l18 41l17 64q-8 1 -16 1q-31 0 -54 -18l-52 6l-158 17l-18 6q-140 29 -228 29q-193 -23 -310 -152q-35 -23 -61.5 -49.5t-44.5 -38.5l-29 -29l-6 -11q-64 -64 -99 -118l-6 -40q41 0 70 23l18 17 q29 41 64 65q123 172 299 172q82 0 175 -38q-35 -88 -47 -158q-18 -35 -23 -64l-12 -129l-12 -11q-29 -29 -58 -47q-29 -6 -47 -18l-35 -23q-47 -35 -82 -53l-12 -11l-117 -88l-5 -30l76 18q135 99 275 105l11 -23v-100q0 -53 -6 -93v-117q9 -70 9 -127t-9 -101q3 -18 3 -34 t-3 -31v-41q0 -18 -5 -23q0 -59 -6 -100q1 -12 1 -23q0 -34 -13 -64l-99 11q-29 6 -47 18q-117 23 -187 64q-88 23 -147 59q-146 53 -164 187l18 23l23 36l141 146l35 29l111 82l18 29l-35 -6q-41 -35 -77 -52l-76 -65q-59 -35 -93 -76l-24 -17l-35 -29l-11 -6l-18 -18 q-47 -41 -70 -76l-59 -70zM872 28q-6 26 -6 49.5t6 43.5l6 71v58l11 53v41l6 17q0 64 12 112l6 257l6 18l6 46l5 94l12 18h35l41 -12h18q47 -12 87 -12l12 -17v-223q6 -26 6 -51t-6 -48l6 -88l-6 -35q0 -53 -6 -94l6 -11l-6 -18q0 -76 -17 -135q-35 -82 -82 -123 q-51 -18 -99 -18q-30 0 -59 7zM954 1151q-8 53 -8 104q0 87 25 165q14 1 28 1q94 0 171 -36l-11 -11q-41 -76 -100 -123l-6 -12q-29 -18 -41 -35z" />
<glyph unicode="[" horiz-adv-x="412" />
<glyph unicode="\" horiz-adv-x="465" />
<glyph unicode="]" horiz-adv-x="456" />
<glyph unicode="^" horiz-adv-x="482" />
<glyph unicode="_" horiz-adv-x="716" />
<glyph unicode="`" horiz-adv-x="522" />
<glyph unicode="a" horiz-adv-x="1473" d="M0 -37v-35q18 -23 41 -29l12 12q53 35 82 64l29 41l53 47l11 17q23 29 35 59l18 12l17 23l24 29q41 41 58 76q59 -12 100 -35l76 -58l35 -18q35 -35 70 -52l76 -77l47 -11l70 11l35 24l18 6q29 18 47 35l35 23l23 18q29 18 41 35l18 6l111 99q57 -285 252 -285 q46 0 99 16l29 23q47 53 88 82v24q-164 6 -257 146l-6 24q-12 35 -12 64l-17 544l-6 41l-6 293l6 35l-12 403q-18 18 -53 24l-41 17l-23 6q-35 12 -64 12l-117 29q-47 0 -88 18h-275q-358 -181 -358 -429q0 -64 24 -133q105 41 164 123q-26 71 -25 135q0 83 43 152l41 5 q29 0 46 6l129 -6l94 -17q76 0 134 -29q105 -12 176 -41q18 -35 17 -65l-29 -46l-17 -30l-12 -29l-41 -70l-6 -18l-199 -304l-17 -18q-23 -35 -30 -41l-23 -29l-12 -23q-29 -29 -41 -47l-35 -47l-41 -29v-18q-29 -59 -58 -93l-18 -24l-17 -23l-24 -35l-17 -24l-30 -35 l-5 -11l-24 -30q-23 -41 -47 -64l-6 -12q-41 -53 -76 -82q-123 -246 -339 -357zM521 455l23 53q23 23 35 46l24 36l11 11l24 41q53 53 82 94l70 -18q65 -18 115 -18q13 0 25 1q56 -13 108 -13q63 0 121 19l11 -12v-47q6 -59 18 -94l-12 -35l6 -17q-6 -29 0 -35l-6 -18 l6 -117q-94 -117 -222 -152q-47 18 -76 41l-18 23l-211 152l-17 6q-53 29 -94 41q-18 6 -23 12zM831 888l17 29q18 12 24 24l29 46l12 12l88 123l11 12l59 99l23 29q23 59 59 94l11 -23v-76l-5 -24v-275q0 -41 5 -105l-17 -6q-35 0 -59 6q-47 0 -82 6h-17l-64 17 q-53 0 -94 12z" />
<glyph unicode="b" horiz-adv-x="1423" d="M0 1536q0 -18 12 -29l29 29q29 18 47 35l41 -6l82 -47l11 -11q53 -23 82 -47q18 -47 24 -82l6 -47l5 -41q0 -41 6 -105q-3 -32 -3 -59.5t3 -51.5l6 -217q3 -24 3 -44.5t-3 -37.5l6 -29v-88q0 -35 6 -58v-47q0 -88 11 -146l-11 -53q-41 -29 -65 -53q-35 -23 -87 -70 q-105 -64 -152 -146h17l59 35q47 35 87 53l65 -6q53 -18 93 -24q18 -6 24 -11h17l35 -18l59 -17q47 -18 76 -36q8 -23 8 -47q0 -12 -2 -23l-6 -23l-18 -47v-18l-52 -117q-29 -53 -41 -93q47 41 64 93q23 41 29 65l77 169q19 5 38 5q26 0 49 -10l30 -6l40 -12l141 6 q111 47 175 123q261 176 261 454q0 66 -15 137l6 17l6 41q-8 23 -8 44q0 11 2 21l-6 17v106l-6 17v35l-5 12l-12 64q-18 35 -35 53l-65 18q-31 10 -59 10q-21 0 -40 -5l-18 6l-70 12q199 181 211 369l-29 46l-30 12l-47 18l-87 46l-53 18l-76 6l-29 -18q-47 -23 -71 -52 l-17 -12q-41 -23 -73 -52.5t-62 -41.5q-6 29 0 41q3 38 3 71.5t-3 63.5q51 98 51 153q0 40 -27 57l-6 -11q-64 -123 -70 -234l-18 -41v-18l-17 -64q0 -99 -6 -141l-59 -58l-17 17q0 140 -24 229q-117 105 -251 134l-18 -11q-29 -23 -47 -30l-29 -23q-41 -23 -88 -64 q-47 -35 -70 -59zM439 331l6 11q82 82 111 170l6 35l-6 35v35l-6 12l6 12l-6 29v135l-6 35v152l-6 64l-6 82v129l65 70l6 -23v-24l-6 -64v-53q3 -18 3 -33.5t-3 -30.5v-65q17 -83 17 -140v-6q-29 -29 -46 -58q18 -12 46 -6l6 -47v-70q0 -41 12 -65l-6 -23q0 -88 -6 -123v-58 q-6 -70 -6 -117l-17 -41l-35 5q-70 29 -123 36zM679 325v82q13 50 13 92q0 16 -2 31v64l-11 23q12 18 14.5 38.5t-3.5 26.5l6 64l-6 129q94 117 223 146l35 -6q105 -6 170 -23q35 -35 52 -76q0 -47 12 -76v-47l6 -24v-128l6 -18v-205q2 -23 2 -45q0 -43 -8 -78l-6 -17 q-18 -64 -41 -105q-47 -24 -94 -24l-46 6l-36 6q-53 6 -93 29q-47 12 -82 29q-64 18 -105 47q-6 35 -6 59zM685 1279q-2 31 -2 58q0 50 7 88q47 70 100 111q187 -24 298 -135q-47 -222 -298 -357l-76 -64l-18 29v88q-18 61 -18 116q0 34 7 66z" />
<glyph unicode="c" horiz-adv-x="1427" d="M6 955q-4 -52 -4 -101q0 -355 220 -607q111 -135 246 -205l-6 -23l-58 -111q-29 -41 -41 -76q35 29 52 58l82 141h18q99 -35 181 -35l18 11l117 24q23 18 47 23l58 29l29 24l88 58l18 18l12 6l23 17q29 18 41 35q35 23 58 47l41 41q-6 18 -23 18q-194 -191 -392 -191 q-137 0 -275 91l12 29q12 70 29 112v82l6 11l6 41q-2 12 -2 28q0 29 7 72v70l6 23l6 47l12 65v64l6 41v70l6 35l5 29v112q6 59 18 99v18q-3 32 -3 59.5t3 51.5q64 129 175 187q199 -23 340 -135q29 -18 58 -23l47 47q29 53 76 88v35q-193 168 -404 168q-32 0 -64 -4 q-41 -47 -82 -65l-12 -11v-18l-11 -18q-18 -29 -29 -35l-41 -64q-27 -40 -39 -40q-10 0 -10 29q0 26 8 75v30l17 52q0 12 6 41q23 76 29 129h-23l-18 -35q-47 -76 -52 -106l-18 -40l-17 -77l-36 -163l24 -18q-8 -23 -8 -47q0 -12 2 -23l-12 -18q-29 -59 -58 -93l-6 11l-6 41 v141l6 17v65l6 11l6 94l46 164q29 29 47 58.5t-6 34.5q-12 -17 -35 -35l-17 -23l-30 -35l-93 -105q-421 -287 -433 -738zM176 1107q0 298 234 492q6 -12 0 -35l-18 -88v-23q-6 -47 -6 -76q-8 -35 -8 -65q0 -15 2 -29l-6 -59l6 -76q3 -88 3 -146.5t-3 -87.5q0 -47 6 -82 q-12 -35 -12 -64q0 -18 -5 -23v-94l-6 -18q2 -14 2 -27q0 -26 -8 -49l35 12l12 18q35 47 52 82q42 104 42 198q0 12 -1 24q6 23 6 58q13 62 13 113q0 17 -1 34l47 87l11 41l12 -23q-8 -35 -8 -68q0 -16 2 -31l-6 -18l6 -41v-105l-6 -35l-17 -30v-17q6 -35 6 -74.5t-6 -83.5 l-6 -29v-24l-12 -117v-99q2 -23 2 -45q0 -62 -13 -113q-187 146 -275 333q-84 195 -84 384q0 60 8 119z" />
<glyph unicode="d" horiz-adv-x="1816" d="M0 94h23l24 11q53 47 105 65h117q41 -18 76 -18q47 -23 88 -29l23 -6q76 -29 129 -41q12 -18 12 -35q-18 -47 -24 -82l-5 -47l-6 -35q-18 -41 -18 -70l-17 -53v-35l-12 -23v-18l-12 -41l-11 -47l-47 -117l23 18l47 117q18 76 53 129q6 59 35 134q12 99 52 176q18 6 24 0 q-23 -82 -29 -135h17q23 76 59 129q135 -44 254 -44q292 0 483 266q204 189 204 439q0 37 -5 76l12 12q47 6 81 23q0 18 -5 24q-14 -2 -27 -2q-37 0 -67 13v24l-12 82v35l-6 23q-18 59 -17 100l-6 23v24l-18 64q-24 44 -24 83q0 8 1 16q-29 23 -47 53l-6 12l-23 29 q-41 70 -88 105q-212 112 -424 112l-196 -24l-6 24v29l12 17v59q24 68 24 124q0 12 -1 22q-29 -35 -58 -99q-12 -47 -24 -71q-23 -82 -58 -134h-18q-70 -12 -117 -29l-17 5l-47 -5l-228 17l-30 -35l-46 -82q-13 -26 -13 -46q0 -57 107 -57q28 0 64 4q12 0 40 6l106 11h17 q53 18 94 18l-12 -18l-64 -70q-82 -70 -123 -146q0 -18 12 -47q-19 -34 -19 -67q0 -7 1 -15q-6 -18 0 -47v-275l6 -64l-6 -24l6 -41l-6 -41q3 -32 3 -58t-3 -47q-18 -29 -17 -53l-12 -11l-29 -35l-76 -12l-41 -23q-18 -12 -47 -36q-35 -29 -65 -46l-29 -30q-41 -29 -64 -52z M415 339l6 12q35 35 47 64q59 64 82 129l18 182l-12 64v257q-2 36 -2 70q0 100 14 170l93 100q24 -18 12 -41l-6 -47v-117l-12 -41l-5 -82l5 -29l-5 -65q-12 -53 -12 -93l6 -29l-6 -30v-23l-6 -12l6 -29q-6 -53 -6 -94v-58q0 -47 -6 -82v-100q4 -27 4 -52q0 -49 -16 -88 q-35 18 -64 23l-12 6l-64 18q-35 0 -59 17zM690 281q0 76 18 134q-2 25 -2 48q0 46 8 81v18l6 41v52l6 12l5 64l-5 18q3 24 3 44.5t-3 37.5l5 53l6 35l6 29v82l6 29v64q0 35 12 65l-6 41l6 23l6 146q18 29 46 36q18 -18 24 -36l-6 -17l6 -70l6 -12v-64q0 -105 -18 -176v-64 q-6 -12 -12 -41q0 -82 -17 -135q0 -47 -6 -82v-52l-6 -12l-6 -64q-6 -47 -11 -123v-35l-12 -41v-41q-18 -59 -18 -106l-29 -17q-18 12 -18 35zM772 240q0 35 6 58q6 12 12 36l6 29q6 53 17 93v47l12 29q-2 18 -2 34q0 33 8 60q-2 22 -1 43q0 63 13 115l29 18l23 -12h106 l35 6l23 -6h199l47 -6h41q59 12 105 12l24 -18q13 -90 13 -168q0 -317 -207 -458q-52 -7 -101 -7q-111 0 -209 36l-29 6q-64 12 -105 30q-41 6 -65 23zM848 884q50 17 90 17h4q27 -8 52 -8q12 0 24 2l246 -6l47 -11h134l18 -18q-35 -23 -65 -23q-47 0 -81 -6l-94 6 q-43 -8 -78 -8q-18 0 -33 2q-16 -2 -30 -2q-29 0 -52 8h-59l-23 -6q-26 3 -50 3t-44 -3q-12 29 -6 53zM866 942l6 135l6 23l6 23l11 100v18q0 41 6 70q-5 28 -5 54q0 39 11 74q433 -17 515 -397q21 -45 21 -88q0 -18 -4 -35l-35 6h-64q-76 0 -129 11h-210q-27 -2 -51 -2 q-49 0 -84 8z" />
<glyph unicode="e" horiz-adv-x="1837" d="M0 183q35 0 59 12l35 11h17l35 18q47 6 82 17q47 23 88 24q41 -29 53 -47l23 -23l12 -6q53 -59 93 -88q59 -23 76 -35q64 -18 106 -53l-12 -93l-6 -12q-23 -53 -29 -100q-18 -41 -18 -58q-35 -70 -41 -123q12 12 18 26.5t12 20.5l6 23l17 41q29 64 35 105l70 153l18 5 q38 -13 70 -13q12 0 24 2q404 18 655 339l-35 -6q-204 -176 -419 -176q-136 0 -277 71l-6 41l11 35q6 12 12 41q0 99 23 170l6 23l-6 64q12 35 12 59v47q0 88 18 146l23 29q35 8 65 8q15 0 29 -2l199 -6q35 0 58 -11q29 0 47 5l18 -5h163q64 29 106 76q35 12 58 35l41 41 q99 53 152 128q-18 12 -41 6l-23 -23q-41 -23 -64 -47l-18 -12l-70 -35h-135q-35 0 -58 -6l-35 6l-35 6l-53 6q-43 -4 -81 -4q-76 0 -130 16q12 18 41 47l6 11q41 29 94 94l29 29l12 24l29 29l6 11q41 29 58 59l18 18l64 81l18 12q35 53 70 82l-12 35l-64 -12l-82 12l-99 35 q-99 47 -199 47q-53 -29 -88 -70l-94 -88q-17 49 -17 92q0 92 76 160q-29 12 -47 0v17q18 56 18 100q0 12 -1 23l-11 -17l-18 -35q-23 -82 -58 -141q-53 -35 -82 -70q-70 -41 -111 -100l-41 -5q-404 -240 -410 -650q-3 -41 -3 -80q0 -260 132 -458l-6 -35l-64 -36 q-53 -12 -94 -35q-76 -23 -123 -58zM427 1359l29 23l6 12l123 117l-35 -105q0 -18 -6 -53l-12 -93v-41q-5 -45 -5 -82v-12v-100q3 -14 3 -33.5t-3 -42.5v-163l5 -65l-5 -35q0 -53 -6 -94q-12 -82 -59 -134q-144 250 -144 491q0 209 109 410zM497 411l24 41q146 135 169 310 q23 53 77 70q4 -26 4 -50q0 -50 -16 -90l6 -41v-35q-12 -47 -12 -76q1 -16 1 -31q0 -44 -13 -75q1 -16 1 -32q0 -91 -30 -161l-23 12q-53 29 -82 59q-70 53 -106 99zM702 844q-8 55 -8 107q0 148 61 273l12 -41v-64l5 -17l6 -194q-41 -41 -76 -64zM702 1295q-4 39 -4 75 q0 155 80 264q6 -12 6 -41l-12 -29q-13 -76 -13 -134q0 -23 2 -42zM848 1014q0 47 12 76q-6 29 -6 70q-2 16 -2 30q0 29 8 52q-13 57 -13 108q0 38 7 73q29 47 65 71q47 -6 82 -18q59 -12 99 -35l59 -18l35 -5q47 0 76 -12l-18 -24l-129 -146q-29 -41 -52 -64 q-35 -35 -53 -59l-47 -47l-17 -23l-24 -18q-29 -41 -58 -64q-23 23 -24 53z" />
<glyph unicode="f" horiz-adv-x="1601" d="M0 18q82 23 135 81h17q35 -18 65 -23q129 -70 251 -76q298 146 375 427l-6 24v23l-6 35l-24 129l-5 23l-6 47q0 23 -6 41t-12 58q-6 29 -11 59l-18 64l-6 53q6 18 12 23q53 0 88 -23l5 -35q18 -53 18 -94l12 -58l6 -41l5 -41l6 -146q42 -96 42 -192q0 -39 -7 -78 q23 29 24 65v76q0 53 6 82l-18 181l-6 65l6 23l-6 17v170l18 18q49 -6 96 -6q131 0 243 47q47 29 76 58q76 23 111 82q-116 -49 -225 -49q-22 0 -44 2l-11 6l-246 18l-29 17l-6 41q2 37 2 66q0 59 -8 86l6 65l-6 210q-8 25 -8 47q0 45 31 76h18q82 -23 134 -29 q105 -52 199 -52q150 0 269 134l-99 -12q-180 88 -321 88q-120 0 -211 -64l-18 17v35q3 26 3 50t-3 44q23 70 29 111q6 18 -11 18l-36 -59v-17l-23 -41q-29 -105 -59 -170v-64l-11 -12q-41 -23 -65 -47l-52 -47q-70 -47 -111 -99q-47 -128 -47 -251q0 -74 17 -147l-17 -18 l-18 -6l-23 -17l-94 -59l-17 -17l-35 -29q-47 -29 -77 -59v-17q29 0 47 5q91 96 200 96q17 0 34 -2l18 -41v-76q0 -23 12 -53q6 -53 17 -93q0 -18 3 -32.5l6 -29t9 -20.5v-35l6 -18l5 -47q12 -35 12 -64v-18q6 -35 12 -41l6 -35q6 -70 17 -117q-6 -64 -17 -105l-35 -41h-36 q-29 18 -58 18q-35 18 -64 23q-94 53 -182 58q-176 -94 -269 -239zM731 1615l12 12q35 23 53 47q11 -6 11 -18l6 -23l-6 -30l6 -35v-47q8 -35 8 -65q0 -15 -2 -28l6 -65q5 -47 5 -88q0 -62 -11 -111l-82 6q-34 123 -34 239q0 106 28 206z" />
<glyph unicode="g" horiz-adv-x="1518" d="M0 724l6 -12q12 -293 140 -515q164 -146 346 -187l-6 -52l-6 -41l-12 -65v-23l-6 -12l-17 -88l-6 -46l-6 -41q12 6 12 17q12 41 17 82q6 47 18 76q0 41 17 76q0 70 30 123h10q85 0 85 -70q0 -27 -13 -64h17q6 70 18 117q298 6 497 175q146 70 228 181l-6 65l6 12 q18 94 18 158l6 17q0 29 5 47l-5 64l5 18q-6 12 0 41v105q-18 59 -17 105l-29 41q-35 -6 -59 0l-123 24h-47l-23 6l-17 -6l-24 6l-41 5q-21 -2 -40 -2q-38 0 -65 8l76 59q41 23 47 35l17 18q12 6 41 29t35 29l59 53l12 6q53 53 64 58l29 35l6 12q53 82 94 129l-6 35 q-14 -5 -30 -5q-24 0 -52 11l-59 17h-17l-35 12q-23 0 -59 6l-23 11l-88 24q-47 0 -76 6l-53 -18q-41 -18 -70 -23v17q6 21 6 38t-6 32q13 40 13 76q0 12 -1 24h-18l-12 -29v-18q-18 -35 -29 -94l-29 -111q-23 -29 -41 -41q-12 12 -12 24v70l6 47v64q0 29 -6 47q8 31 8 60 q0 14 -2 28q-6 23 -23 35l-18 -35q-41 -76 -52 -141l-176 -169q-432 -200 -432 -595q0 -44 5 -90l-6 -12v-111zM193 859q-11 74 -11 144q0 191 81 353l24 23q59 59 111 94l6 -17l-6 -18l-18 -105v-18q-3 -21 -3 -38t3 -32l-11 -35l5 -24l-5 -76v-286q-6 -23 -6 -59 q-12 -47 -12 -88q-23 -105 -76 -181l-18 17l-11 41l-18 53l-11 41l-6 29l-12 47zM287 443q111 111 158 234l35 65q0 41 17 105q0 64 18 111v158l6 12q-6 38 -6 71.5t6 62.5l17 24l59 76l17 -12v-70q2 -17 2 -32q0 -27 -7 -50v-88q0 -59 -6 -99q-6 -23 -6 -46.5t-12 -53.5 l-53 -52q18 -18 47 -6l-6 -47l-11 -94v-35l-6 -11q0 -64 -12 -106l12 -17l-6 -12q-6 -53 -18 -94q3 -30 3 -58q0 -83 -26 -152q-158 76 -222 216zM532 1344q-7 38 -7 74q0 124 78 219l6 -18l5 -175q-35 -64 -82 -100zM550 215v35l6 24q12 47 12 76l17 64l6 64l6 47v35l12 59 v105q13 50 13 89q0 15 -2 28q23 47 53 70q29 1 47 -5v-71q-6 -59 -6 -99q-12 -29 -12 -53q-12 6 -23 0l23 -17q0 -59 -41 -82q6 -23 24 -35q-6 -47 -6 -82q0 -18 -12 -47l6 -12q-6 -12 -12 -41q-6 -105 -29 -175q-47 6 -82 23zM568 -405l5 17l12 18v35l18 59q6 82 17 128 l-11 6q-12 -41 -12 -82q-30 -90 -30 -158q0 -12 1 -23zM650 1040q6 12 5 41l18 64l6 100q0 29 6 47l5 41l-5 29l5 76l47 29q12 -5 12 -17v-59l6 -23l-6 -65v-58l-6 -18q8 -40 8 -76q0 -48 -14 -88v-40l-82 -59q-8 26 -8 49q0 14 3 27zM667 186v23l6 41l6 35l11 24l6 46l6 41 l6 41l-6 12q18 53 24 94q39 17 72 17h4l23 -6l228 6l12 -6l135 -5q5 -42 5 -83q0 -94 -29 -181q-18 -41 -41 -64q-151 -58 -293 -58q-89 0 -175 23zM726 590q6 53 29 87l23 -6q20 -2 37 -2q36 0 63 8h35q23 -3 44 -3t38 3q59 -11 111 -11t99 11q5 -22 5 -43q0 -29 -10 -56 l-30 -6zM749 718q12 146 29 199l129 -17h23q12 6 23.5 3t41.5 -3l41 -6q76 -18 128 -18q29 -64 30 -123q12 -18 11 -41h-187l-17 6h-170q-43 -11 -71 -11h-5zM790 1046q-6 26 -6 50t6 44l23 81v18l-6 29l6 65v117q18 23 35 29l47 -18h18q88 -23 146 -23l24 -12l93 -29 q-158 -240 -386 -351z" />
<glyph unicode="h" horiz-adv-x="1414" d="M0 1409q0 -35 29 -24q18 18 53 35l29 30q29 18 41 35l41 23q35 12 59 29q18 3 34 3t30 -3q55 6 108 6q144 0 272 -46l-6 -12q-111 -94 -158 -211v-17q-9 -54 -9 -96q0 -12 0.5 -23.5t0.5 -22.5q0 -38 -9 -75v-111l6 -18q-6 -47 -6 -82q1 -26 1 -50q0 -72 -13 -125l6 -41 v-59q-6 -70 -6 -119.5t-17 -90.5q-35 -47 -53 -82l-23 -18l-117 -58q-47 -41 -88 -59q-18 -23 -18 -47l41 6q59 -18 100 -23l11 -6l65 -12q53 -23 99 -29q73 -32 138 -32q19 0 38 3l35 17q135 35 228 117l29 36q-75 -14 -147 -14q-170 0 -321 78l47 47l23 35l6 17l24 24 l23 35l12 35l41 70l-6 24l12 41l-6 17q0 47 6 82l-6 29q17 89 17 141v6q35 70 94 111q6 -12 6 -41q-12 -50 -12 -95t12 -87q-3 -18 -3 -34t3 -30l-12 -29q2 -27 2 -51q0 -48 -8 -84v-17l12 -41v-123l-6 -35q29 53 29 99l6 59l18 210q6 12 11 41q0 47 12 111q3 18 3 34t-3 31 q12 76 12 129q6 35 23 58l41 23h18q59 -6 99 -17l18 -6l17 6q29 -18 47 -18q23 2 43 2q38 0 68 -7l-5 -18q0 -59 -12 -99v-100l-6 -23q0 -88 -6 -147l6 -35q-6 -29 0 -52l-6 -24l6 -29q1 -29 1 -56q0 -81 -13 -143q4 -31 4 -59q0 -14 -1 -26q-3 -38 3 -44l-6 -23l6 -24 l-6 -23q0 -47 6 -76q-6 -47 -6 -82v-176q-18 -47 -17 -87l-6 -18q-41 -88 -53 -146l-12 -12l-76 -58q0 -23 18 -35q164 94 246 228q18 59 41 99l6 18q6 47 14.5 73t14.5 79v94l17 29q-12 23 -11 41l11 357q0 53 -6 82l6 41l-6 52v100l6 23q0 35 -6 59q0 47 12 123l-6 17 l6 117q29 64 76 105l6 47q-18 -2 -38 -2q-40 0 -91 8q-59 0 -99 12q-64 6 -111 23l-117 -12l-65 -40q-47 -35 -82 -53v29q-1 19 -1 37q0 54 13 98q-12 52 -12 100.5t12 92.5q-5 28 -5 53q0 38 11 70q35 29 41 64q-23 6 -41 23v36l12 35q0 41 6 70q-3 18 -3 34t3 30l-18 6 l-12 -17l-35 -88q-18 -82 -41 -135h-29l-35 12q-47 0 -123 12l-41 5l-41 6h-105q-275 -94 -445 -292zM696 1245q6 12 12 41l6 41q6 53 17 88l18 11q23 35 58 65l6 -30l-6 -29v-164l-5 -23l5 -18l-5 -46q2 -29 2 -55q0 -52 -8 -92l-88 -88l-6 24q-3 18 -3 34t3 30z" />
<glyph unicode="i" horiz-adv-x="1416" d="M0 95l47 18q82 76 175 93l12 -6l94 -35q172 -172 376 -172q25 0 51 3v-18l12 -35v-18q-12 -53 -12 -93l12 11l5 41q6 76 24 129l17 18q82 47 129 111q53 35 76 82l12 12l35 23l53 111l5 35v41l6 18v169l-6 24l-5 263q0 35 -6 59l6 17l-6 240l6 29q6 82 29 135l6 53 q53 105 146 152q29 29 35 58h-41q-98 -83 -225 -83q-70 0 -149 25l-12 58q12 37 12 71q0 61 -41 111l-24 -30l-17 -64q-35 -53 -41 -111l-88 12q-67 16 -131 16q-53 0 -103 -11l-47 -23l-181 -123q-76 -64 -123 -93l-24 -18l-23 -23q-64 -41 -76 -59q16 -16 47 -16 q24 0 58 10q118 -72 220 -72q146 0 260 148q-41 -12 -78 -12q-69 0 -127 42q-70 18 -117 52q47 41 100 59l64 -6q41 -6 55.5 -6t20.5 -6q41 -6 70 -17h41l12 -6l193 -47v-64l-6 -18l-11 -117v-29q3 -26 3 -49.5t-3 -44.5v-257l-6 -35v-41q3 -35 3 -64.5t-3 -52.5v-82 q-6 -18 0 -30q-12 -59 -12 -99q-6 -59 -6 -100l-6 -52q2 -20 2 -39q0 -54 -13 -102q-47 12 -76 30l-12 11l-35 24l-18 6q-23 23 -52 35q-35 29 -76 46q-41 29 -71 41q-47 0 -76 12q-129 -41 -210 -134q-94 -53 -135 -141zM807 159q6 18 0 36l6 81l6 18l-6 29q25 90 25 154 q0 11 -1 22q12 35 11 64l6 18l12 205q14 79 14 138q0 20 -2 37l6 193l5 18l-5 23l5 29v36l6 11v147l12 17q59 0 105 18q6 -12 0 -24l-17 -47q-6 -23 -24 -58q-35 -105 -41 -176l6 -41v-58l-6 -12l6 -29l-6 -100l6 -11q-8 -31 -8 -61q0 -15 2 -30q3 -22 3 -53.5t-3 -72.5 q8 -47 8 -86q0 -20 -2 -37v-17l6 -47v-176l-12 -70q-33 -94 -92 -94q-15 0 -31 6z" />
<glyph unicode="j" horiz-adv-x="1674" d="M0 26q0 -18 18 -17l64 41l35 29l18 6l111 64q94 -29 152 -76l12 -17q35 -41 52 -71l158 -123q41 -18 70 -46q115 -75 207 -75q67 0 121 40l24 -6l-12 -129q-12 -47 -12 -82l6 -17l-6 -18v-41q0 -88 -6 -146l18 29l6 58l6 24v58l5 30v52l6 24v23l24 146l23 24l35 23 l100 88q29 29 46 41l24 23q47 29 76 59l17 41q41 47 53 105l18 29q11 54 11 94v6l6 310q-8 35 -8 65q0 15 2 29v169l-5 18l-6 35l-6 298l6 41l6 65l5 17l47 94l24 29q29 47 64 76q47 35 70 76q-76 -12 -123 -52q-32 -2 -63 -2q-148 0 -264 48l6 30q0 29 5 47v146h-17 l-35 -70l-41 -147q-75 12 -144 12q-231 0 -406 -135q-64 -35 -100 -64q-104 -92 -104 -107q0 -2 3 -2q14 0 72 33l35 -6q64 -41 111 -58q83 -68 171 -68q48 0 98 21q149 81 149 102q0 6 -16 6q-20 0 -62 -9q-146 41 -240 135q67 8 131 8q154 0 290 -49v-105l-18 -117v-305 q-6 -18 0 -52q-3 -21 -3 -40t3 -36q0 -47 -5 -82v-176q-12 -35 -9 -55.5t-3 -26.5v-41l-6 -23q0 -64 -12 -106l6 -23q-6 -35 -6 -58v-117l-5 -47q-18 -70 -18 -123l-18 -18h-58q-53 29 -88 41l-12 12q-64 35 -99 64l-105 76l-30 30l-17 11q-35 47 -61.5 67.5t-38.5 38.5 l-123 46q-41 -6 -70 -17l-23 -23q-35 -12 -76 -47l-12 -6l-64 -47q-18 -12 -24 -17l-17 -12q-82 -53 -129 -100zM1094 -73l6 35l6 29l17 129q6 47 18 82q0 105 23 175q-3 35 -3 64t3 53v36q6 12 6 41l12 35v29l12 99q0 47 6 82l5 111q0 29 -5 47v135q12 35 11 58v82l-6 12 l6 29v106q6 47 35 64l170 -6q-35 -35 -53 -70l-11 -12l-24 -41q-18 -59 -35 -88v-17q-23 -82 -23 -146v-194q8 -39 8 -70q0 -16 -2 -29v-29q8 -30 8 -55q0 -14 -3 -27v-24l6 -41l6 -35l6 -99l-6 -24q0 -35 6 -58v-41q-2 -21 -2 -40q0 -38 8 -65q-8 -43 -8 -78q0 -17 2 -33 q-47 -164 -187 -229z" />
<glyph unicode="k" horiz-adv-x="1594" d="M0 56q35 -6 59 5q82 -29 140 -29l29 -17q64 -23 106 -53l46 -18l41 -17h35q53 18 94 23l12 -76l6 18l11 70l30 18q53 23 81 52q53 29 94 70l-12 18q-79 -48 -152 -48q-8 0 -17 1l-12 24v52q0 29 6 47l6 146q6 35 11 88l6 187l47 41h18q106 0 187 -64q47 -53 70 -100 l29 -70l18 -29q6 -18 23 -53l35 -64q53 -99 82 -170l30 -35l17 -35l12 -29q35 -47 47 -82q29 -64 35 -82q23 -76 64 -129q47 -25 93 -25q95 0 182 107v24q-76 29 -117 87l-17 35l-18 36l-18 40q-29 53 -41 94l-52 88q-6 18 -12 23l-17 30q-29 64 -59 105l-94 187l-11 12 q-29 94 -76 158l-12 6q-70 70 -152 99l6 12q82 53 123 123q111 84 111 174q0 86 -100 177q-47 53 -105 58l-53 -47q-29 -18 -47 -35l-29 -29q-29 -18 -52 -47l-106 -111l-11 12l11 152q0 47 6 82v58l6 12q0 41 6 105q12 29 23 47l41 6l176 -6q12 -6 23.5 -8.5t40.5 -8.5 q29 0 70 -18l82 -6q104 -42 194 -42q12 0 23 1l11 6q88 41 147 94q-6 29 -30 41q-23 0 -40.5 5.5t-35 5.5t-23.5 6l-41 6q-35 12 -59 12q-35 6 -58 17l-64 6l-18 12h-41l-17 6l-36 6h-46q-35 8 -65 8q-15 0 -29 -2q-129 -29 -205 -77l-12 18l6 18v35l6 17v141h-17 q-76 -120 -76 -240v-18l-12 -11l-105 -77q-76 -47 -118 -81q-23 -47 -52 -77l-24 -76l-5 -35l-6 -64l-6 -18v-41q-8 -47 -8 -80q0 -17 2 -31l6 -70q-64 -176 -187 -275q-18 -23 -18 -47q117 -6 205 -47q3 -12 3 -28t-3 -36q8 -35 8 -68q0 -16 -2 -31q1 -12 1 -26 q0 -42 -13 -103l-12 -29l-35 -36l-82 -41l-11 -11q-88 -47 -135 -94v-17zM281 202l41 29l41 53l35 29l17 23q18 35 36 53v18l11 17q3 24 3 43t-3 33l6 24q-3 18 -3 34t3 30l-6 211l6 11q47 70 88 106q8 -31 8 -70q0 -19 -2 -41q-6 -53 -6 -94q0 -88 -6 -146v-100l12 -35 q0 -29 6 -47q-6 -35 -6 -58q1 -23 1 -45q0 -109 -25 -183l-41 17l-41 29l-35 6l-29 18q-70 12 -111 35zM468 904q-3 26 -3 50t3 44q-11 81 -11 157q0 166 52 311q35 41 70 58l18 -23v-35q-6 -18 -3 -32.5t-3 -55.5l-6 -53l-6 -76v-105q-13 -68 -13 -120q0 -20 2 -38 q-70 -76 -94 -94zM632 758q3 26 3 49.5t-3 43.5l12 147l23 35q18 6 23 17q70 99 129 147q129 -82 164 -211q-117 -158 -293 -211l-52 -41z" />
<glyph unicode="l" horiz-adv-x="1512" d="M0 177h18q64 29 122 35l18 -6l35 -6l41 -5l70 -24q59 -18 100 -23l29 -6l29 -6l24 -12l82 -29l46 -17l123 -41q29 -12 47 -24l41 -12q64 -12 111 -40l35 -6q70 -23 123 -24l12 6q211 41 345 152q-12 12 -23 12q-74 -26 -141 -26q-23 0 -46 3h-18l-158 52q-41 18 -70 24 l-305 105l-23 6l-58 23h-24q-41 18 -76 18h-23q-35 18 -59 23q-76 12 -129 29l12 12q59 41 94 82l11 18l12 5q29 47 59 71l93 41l30 23q99 41 158 99l5 12l30 35l46 82l18 35l18 47l5 12q12 64 41 105v18l18 29v18l47 134q6 41 23 64v18l12 18q29 129 47 169l6 18l52 99 q105 181 287 223q6 18 -6 29h-12q-503 -94 -591 -550l-17 -41q0 -23 -12 -53l-6 -41q-18 -41 -17 -76l-12 -17l-6 -41l-23 -70l-12 -18l-35 -135l-47 -93l-12 -12q-41 -64 -58 -76q-6 18 0 29l12 41l5 29q6 47 18 77l6 46l35 164v53l6 17v82l6 18l6 47q6 88 29 146l17 23 q23 47 44 73.5t38 38.5l111 93q-29 0 -46 6l-41 -12l-18 -11q-29 -12 -58 -36q-29 -18 -47 -23l-65 -41l-181 -82l-18 -6q-53 -29 -93 -35q-59 -41 -100 -58q-41 -29 -58 -65q12 -18 47 -11l46 17q41 18 59 29.5t47 23.5l41 17q64 18 105 53l6 -23q-64 -158 -70 -217l-6 -47 l-6 -11l-12 -35q-18 -82 -41 -129l-29 -24l-64 -35l-18 -17q-47 -18 -76 -47q-6 -35 6 -59l12 -5l35 -12q76 -12 128 -47q-6 -117 -46 -199q-23 -53 -53 -82l-12 -11q-29 -29 -58 -47l-41 -41l-35 -24q-76 -41 -123 -76z" />
<glyph unicode="m" horiz-adv-x="2358" d="M0 209l18 -6q82 -12 134 -35l88 -35q88 -18 146 -53l59 -17q70 0 117 -24q18 6 23 12h41l18 6q41 0 70 12l105 29l35 29l123 70v18q-100 -32 -193.5 -32t-180.5 32l-18 12q-29 6 -47 17h-17q-35 18 -65 24l-17 6q-47 12 -76 29l17 17l141 129l11 29q41 76 59 129v29 q23 82 23 117l6 47l6 65l6 46l18 65v23l23 100v17l17 70l18 18q53 41 105 64l12 12l158 94q29 -6 53 0l23 -35v-100l-6 -23v-82l-6 -18v-41q0 -76 -11 -129l-12 -11q-47 -70 -99 -106l-18 -11q-76 -41 -117 -76l-6 -24q48 10 93 10q80 0 147 -33q-6 -35 -6 -88 q-3 -24 -3 -44.5t3 -37.5l6 -17l-6 -12l6 -211q18 -53 18 -99l11 -12l41 -53l18 -11l35 -18q29 -29 53 -41l11 -12l70 -46q-2 -21 -2 -40q0 -38 8 -66q14 44 14 82q0 12 -2 24l12 11q111 47 181 123v24q-105 29 -170 99l6 129l6 17v106q8 27 8 52q0 12 -2 24q8 35 8 65 q0 15 -2 28l12 18l52 29q123 53 193 129q-6 12 -17 12q-68 -50 -136 -50q-43 0 -87 20l6 41l6 30l6 76l12 164q-3 32 -3 49.5t3 20.5l5 29l6 88l6 35q12 29 29 47h24q48 -19 92 -19q10 0 19 1l47 -17l35 -6l35 -6l47 -6l146 -12q-149 -195 -149 -408q0 -30 3 -60 q-12 -76 -12 -128q-3 -18 -3 -34t3 -31l-6 -17v-59l-6 -17q0 -29 -5 -59q3 -35 3 -64t-3 -53v-35l17 -158l18 -24l70 -70l17 -11l18 -24q35 -18 59 -41l64 -6q217 76 345 223v23q-105 -23 -175 -82h-18q-140 64 -216 170l-18 70v176l6 23q0 88 12 146l5 158q-2 21 -2 40 q0 38 8 66l6 64q6 99 41 176l12 23l41 58l11 12l18 24q47 47 82 70q12 18 12 35q-70 -29 -117 -35l-24 6h-23l-24 11h-41l-140 35l-47 6l-47 12l-70 6l-12 -6q-23 -6 -43.5 -17.5t-49.5 -35.5q-47 -47 -82 -70l-12 24l6 93q0 35 6 59v41q3 44 3 80.5t-3 65.5 q-94 -172 -94 -348v-21l-11 -93q-23 -59 -71 -94q-12 35 -5 59l5 41l-5 11q8 40 8 78q0 51 -14 98l-59 -12l-234 -6q-57 14 -101 14q-15 0 -28 -2h-64l-35 6l-41 6q-65 11 -110 11h-7q-112 14 -112 70q0 14 7 30l11 11l35 24q53 47 94 70v18h-23q-47 -29 -88 -35l-18 -24 l-64 -53l-70 -64q-47 -35 -71 -64v-70l12 -12q29 -29 82 -47l59 -6l76 -6l29 -6l175 -5l12 -6l170 -6l-41 -29q-64 -59 -135 -88l-17 -18l-35 -11l-18 -12l-29 -18q-29 -18 -47 -23l-41 -23l-17 -53l-12 -64l-18 -47q-6 -88 -41 -158l-47 -47l-46 -29l-12 -12 q-35 -18 -59 -35l6 -29h18l35 -18l12 -12q47 -12 76 -35q-6 -129 -65 -222q-18 -29 -46 -41q-25 4 -49 4q-86 0 -150 -51q-70 -23 -94 -82zM1211 601q-2 14 -2 26q0 25 8 44h7q42 0 69 -11q6 -41 6 -76.5t-6 -64.5v-46q0 -29 -6 -47q2 -21 2 -42q0 -57 -13 -105 q-29 29 -47 59l-6 35q-14 105 -13 181q-1 25 1 47zM1217 859l6 76q0 41 6 82q0 41 6 70l-6 35q29 70 82 117q6 -24 6 -54.5t-6 -68.5l-6 -76l6 -35l-6 -47v-123q-18 -6 -29 0q-35 6 -59 24z" />
<glyph unicode="n" horiz-adv-x="1872" d="M0 105q59 23 105 24q127 -120 239 -120q80 0 153 61q199 94 258 275v35q-6 18 -12 53q0 82 -12 135l-11 257l-6 35l-6 35l6 18l-6 23l-6 29q6 29 0 47q2 29 2 55q0 52 -8 92q-2 23 -2 44q0 145 73 195q6 -23 5.5 -43.5t5.5 -26.5l-6 -23q6 -29 0 -47l6 -23v-47 q-2 -29 -2 -55q0 -52 8 -91q-6 -53 -6 -94l6 -23q0 -47 -6 -82v-153q0 -70 -6 -117l6 -35v-82q0 -47 12 -111l12 -82l-6 -11q3 -26 3 -50t-3 -44q18 -51 18 -99q0 -30 -7 -59q18 18 18 35q0 70 12 117v141l6 29v450l5 18l-5 29l11 106q0 47 6 81v129l6 24v140q2 35 2 66 q0 62 -8 110q12 29 35 41l24 -30l52 -47l30 -17l41 -41q35 -29 64 -41l35 -35l18 -12q12 -23 46 -47l53 -46q29 -18 59 -59l29 -29l12 -6q23 -47 64 -70q82 -188 82 -345q0 -332 -369 -527q-35 -23 -52 -59q18 -12 32 -14.5t44 -8.5l64 -12q35 -12 58 -11q35 -6 59 -18h18 l40 -12q59 -12 100 -29l41 6l53 17h17l59 30l17 6l70 35q47 35 76 70h-17l-123 -24l-82 18l-29 12q-12 0 -41 6l-35 11l-24 6l-41 12q-64 6 -105 23q351 273 351 606q0 167 -88 348l-11 12q-35 47 -65 70q-64 70 -87 82l-94 93q-29 18 -41 41q-18 6 -35 24l-23 17l-36 24 q-41 41 -76 58q-35 35 -35 82h-17l-30 -17l-58 -41l-24 -18l-23 -17q-41 -18 -64 -41l-12 11v141h-23q-60 -86 -60 -181q0 -9 1 -18l-12 -29l-11 -12q-135 -64 -223 -164l-6 -23l-11 -30v-17q-6 -35 -6 -59q-3 -20 -3 -38t3 -32l-6 -17v-47q-18 -47 -17 -88l-36 -53l-17 -11 l-24 -24l-105 -82l6 -23q29 0 47 -6q63 -45 122 -45q18 0 36 4l11 -12v-82l6 -29l6 -41l6 -205q19 -67 19 -119q0 -11 -1 -21q-18 -41 -53 -64q-18 0 -23 5l-30 12q-41 29 -82 47q-64 41 -117 53q-23 0 -64 -12l-193 -111zM930 767l12 -12q23 -29 47 -47q23 -18 45 -18 q28 0 54 30q82 35 106 105q-88 94 -193 123q-130 -73 -130 -123q0 -34 59 -58z" />
<glyph unicode="o" horiz-adv-x="1597" d="M12 671q12 -234 146 -403q193 -275 503 -275q13 -35 13 -67q0 -11 -1 -21q18 47 23 82l41 12h70l36 5q703 330 703 922q0 122 -30 255q-94 386 -562 450l-94 -70l-17 29l-12 6q-12 -88 -64 -135q-6 30 -6 58q0 77 46 141q-18 12 -35 12q9 35 9 68.5t-9 66.5 q-64 -94 -70 -188l-41 -41q-146 -111 -216 -263l-12 -41l-6 -64v-94q6 -29 0 -58l-6 -35q0 -53 -6 -94q4 -22 4 -43q0 -50 -21 -92l17 -52l-5 -30v-52q0 -18 -6 -24v-87q-25 -60 -25 -116q0 -10 1 -19q196 134 196 434q0 39 -3 81q41 59 77 94l5 -24v-187l6 -24 q0 -47 12 -81l-6 -65l6 -93q8 -27 8 -52q0 -12 -2 -24v-118l-6 -17q-6 -129 -6 -170q-421 176 -474 585q-16 91 -15 174q0 357 284 575l59 65l-41 -6l-24 -18q-35 -18 -64 -35l-35 -35l-23 -12l-24 -23q-47 -35 -70 -64l-18 -6q-29 -47 -70 -65l-6 -29q-142 -241 -142 -486 q0 -58 8 -117zM597 1163q-6 44 -6 86q0 152 82 271l6 -12l-6 -11q-19 -96 -19 -173q0 -17 1 -32q-29 -82 -58 -129zM708 168l12 82v47q0 29 6 47v58l5 12l12 105l24 -29v-35q1 -28 1 -54q0 -104 -19 -174q0 -29 12 -53q23 6 29 23v41q8 31 8 76q0 22 -2 47q23 105 23 176 q12 41 29 70q105 82 223 94q170 -23 240 -158l35 -18l-6 -47q-170 -334 -492 -339q-82 0 -140 29zM737 549v128l6 30l18 591l17 46l35 59q6 -24 6 -44.5t-6 -37.5l6 -140l-6 -36q0 -47 -11 -82l5 -17l-5 -29q-6 -53 -9 -91t-3 -102q0 -47 -6 -82q1 -21 1 -41q0 -97 -24 -170 q-18 6 -24 18zM837 648q-10 46 -10 88q0 53 16 99q64 -64 134 -93q-88 -35 -140 -94zM848 1046l6 29q-2 23 -2 45q0 43 8 78l-6 23l6 41q-2 45 -2 81q0 72 8 107q304 -47 433 -293q55 -81 55 -149q0 -114 -154 -190q-57 -17 -107 -17q-141 0 -227 134l-12 35zM1194 759 l29 29q99 70 152 153q16 -78 16 -153q0 -87 -22 -169q-82 94 -175 140z" />
<glyph unicode="p" horiz-adv-x="1478" d="M0 66q18 -6 23 0l117 93q76 59 129 88l47 -6q19 1 37 1q105 0 179 -30v-158l-5 -35l-6 -41l6 -35q0 -53 -6 -94v-17q3 -14 3 -30.5t-3 -34.5v-46q-6 -70 -18 -117q6 -35 24 -53q105 47 163 99q-2 29 -2 55q0 53 8 92v76l6 23l6 263q23 12 41 0v-111q18 -70 18 -135 q0 -38 -6 -75q6 6 17 35q0 47 6 79t6 61q0 82 12 135l17 6q35 -14 67 -14q11 0 21 2l12 -6q23 0 58 -6q38 -6 71.5 -6t63.5 6l35 -6q240 123 363 316l6 35q18 53 17 94v76q-6 35 -9 61.5t-8 79.5v93q-8 31 -8 57q0 13 2 25q-12 59 -12 100l-6 17v123l6 18q0 70 12 117l6 17 q23 29 40 59q23 47 47 70l6 12q18 29 35 46l-11 6l-18 -6q-53 -6 -88 -17l-82 12l-210 58l-12 6l-47 12h-17q-43 11 -71 11h-5l-12 -11l-35 -24l-12 -12l-117 -76q-5 28 -5 54q0 40 11 75v41l-18 12q-18 -47 -41 -76q1 -15 1 -30q0 -160 -118 -251q-70 164 -205 240l-93 -6 l-47 -29l-18 -18l-29 -12l-82 -76q-41 -23 -70 -58l-17 -12l-65 -70q12 -6 29 0l106 82q35 29 64 47q187 -41 234 -223l6 -76l-6 -35q2 -20 2 -37q0 -35 -8 -62v-35l6 -24l-6 -17v-170q6 -18 0 -24v-17q8 -47 8 -86q0 -19 -2 -37l6 -18q-14 -66 -14 -115q0 -16 2 -31 q-89 -17 -140 -17h-6l-23 -18q-53 -29 -82 -53l-12 -11l-29 -24l-29 -17l-88 -70q-41 -41 -76 -65l-41 -35zM720 382l6 134l-6 12q8 31 8 57q0 13 -2 25l5 35v105q0 47 -5 77v292l5 41l6 105l82 82q6 -12 0 -35v-164l-6 -35l-6 -41l6 -35v-35l-11 -35v-70l-12 -100 q-12 -29 -6 -52q0 -35 -17 -94q6 -18 0 -23v-94l-6 -23q0 -88 -12 -147zM807 358l6 100q0 47 6 70q-1 15 -1 30q0 58 19 105l6 41v87l5 12v111q18 47 18 82l12 29q3 55 3 93.5t-3 59.5l6 99l5 18l6 46l6 94q41 23 76 29l18 -6l93 -17q82 -41 158 -41q47 -23 94 -23l47 11 q35 23 64 24l-6 -12l-17 -29l-24 -35q-59 -76 -76 -147v-41q-13 -50 -13 -95q0 -17 2 -33l5 -158l6 -41v-47q0 -35 6 -59q0 -41 6 -70q0 -47 12 -88q-6 -29 0 -46q-6 -35 -6 -64t6 -53l-6 -18l-6 -41l-12 -35l-29 -29q-29 0 -47 -6l-17 6q-29 0 -71 5q-12 6 -41 6l-81 12 h-18l-18 12q-29 6 -58 6l-94 29q-18 0 -47 17z" />
<glyph unicode="q" horiz-adv-x="1549" d="M0 619l12 -18v-17l11 -35v-18l24 -58q18 -99 58 -170l-6 -41l47 -18q170 -199 398 -234q89 -24 170 -24q174 0 310 112q70 35 117 47q29 -23 47 -47l6 -12l47 -52l35 -30l5 -11l36 -30l64 -58l99 -59q129 18 194 112q29 18 46 35l24 41h-18q-41 -29 -82 -30 q-82 53 -128 94l-24 23q-53 41 -82 82l-12 6l-29 29q-18 29 -35 47q-29 29 -47 59l12 11l29 36q41 35 65 64v18l23 35q47 70 64 122q15 94 15 181q0 328 -208 568l-41 41l-29 24l-35 23l-23 6l-24 24l-117 76l-82 29l-47 -35l-17 -18q-41 -53 -76 -82l-12 -17 q-29 -29 -41 -47l-29 -35q-18 -47 -53 -76l-6 23q0 111 12 182q0 47 6 81l6 53v47q-2 18 -2 35q0 49 13 88q0 29 -17 47l-53 -106q-6 -53 -23 -93l-12 -12q-59 -53 -88 -100q-502 -299 -502 -816q0 -50 5 -102zM275 467q-103 222 -103 418q0 316 267 565l6 -24l-24 -41v-29 q-35 -59 -41 -117l-11 -18v-46l-6 -18l-6 -41l-6 -35v-64l6 -24v-35l-12 -93v-82l-6 -30q0 -29 -5 -46q0 -88 -18 -147zM316 408q164 246 164 503l23 117q29 53 65 82l5 -29v-58l-11 -82v-30q-6 -47 -6 -82v-23q-21 -78 -21 -149q0 -47 9 -91l-6 -12v-105q-23 -23 -35 -53 q-18 -18 -35 -46l-41 -59l-12 6l-35 29l-6 12q-35 29 -58 70zM474 274q18 29 23 46l24 41q2 -31 2 -53q0 -66 -17 -66q-12 0 -32 32zM509 1099q-8 53 -8 102q0 99 31 184q6 105 59 176q6 -12 0 -24v-23l-6 -35l12 -82l-6 -18v-35l-6 -23q1 -22 1 -42q0 -61 -13 -104l-11 -12 q-29 -41 -53 -64zM550 338q12 140 140 193q217 -76 340 -263l12 -12q35 -23 52 -53l-70 -46q-79 -14 -153 -14q-148 0 -280 54q-60 22 -60 74q0 29 19 67zM568 490l5 129l6 29l6 41q0 47 6 82v17q12 35 12 71l23 164v17q19 86 19 150q0 13 -1 26l11 17l158 193 q528 -255 528 -743q0 -103 -24 -216q-23 -23 -30 -47l-6 -12l-23 -29l-234 246q-29 18 -47 23l-64 35q-205 -12 -304 -164z" />
<glyph unicode="r" horiz-adv-x="1758" d="M23 1q76 18 129 18l18 -6l41 -17q29 -23 64 -30l82 -41l123 -29l76 29l17 12l30 29l11 6l82 70q-6 12 -11 12q-18 -3 -36 -3q-43 0 -81 21v23l17 64q12 41 12 71l6 17l11 240l6 41l24 146q62 43 124 43l28 -2q117 -29 193 -87l6 -12l99 -111l6 -12l23 -35q29 -47 59 -76 q29 -53 88 -123l47 -64l5 -18q29 -29 41 -53l30 -41q59 -59 70 -82q35 -35 53 -58l52 -59q76 -94 135 -134q193 12 316 187v12q-64 -6 -111 -53q-41 18 -71 47l-46 47q-18 29 -36 41l-5 11l-182 211q-35 53 -64 82l-18 29l-93 117l-6 12l-29 41q-18 18 -36 47l-46 64l-18 24 q-35 47 -58 70l-88 76q-105 53 -200 53q-11 0 -23 -1l12 12l29 35q252 181 305 457l23 35l-6 64q-140 140 -310 158l-58 -41l-100 -93l-17 -24q-59 -53 -88 -105l-12 17v53q13 53 13 101q0 58 -19 110q-40 -52 -52 -111l-12 -12q-6 -35 -24 -59v-41q8 -41 8 -80 q0 -50 -13 -95l-12 -35q-35 -35 -53 -76l-6 -12l-23 -29l-12 29v22q0 162 -82 282q-54 115 -133 115q-94 0 -224 -162q-14 -35 -14 -47q0 -7 5 -7q14 0 74 72h35l64 -64l18 -41l70 -129l6 -53q0 -47 6 -117l6 -11l-6 -18q4 -27 4 -51q0 -12 -1 -22q-3 -32 -9 -91 q2 -27 2 -51q0 -48 -8 -83l6 -24v-47q0 -88 -12 -146l6 -18v-35q-6 -38 -6 -71.5t6 -62.5l-18 -65l-23 -29q-140 -59 -211 -170zM322 171l6 18q76 76 111 175l6 30q-2 37 -2 66q0 58 8 86q-2 17 -2 32q0 44 13 79v228q29 70 35 129l59 123l12 -41v-199q21 -66 21 -127 q0 -25 -4 -49q-35 -41 -64 -64q9 -18 22 -17.5t30 17.5l18 -12v-41l-6 -23l-6 -41l-6 -35l-11 -71q-6 -59 -6 -99q14 -56 14 -108q0 -79 -32 -149l-41 17q-18 6 -23 12l-23 6l-41 23zM650 803l5 29l-5 65l5 23v182l6 17q-6 29 0 59q3 18 3 34t-3 30q12 29 6 53q35 53 64 82 q35 41 65 64q29 0 47 6q140 -35 222 -123q-6 -82 -23 -135q-88 -275 -381 -415z" />
<glyph unicode="s" horiz-adv-x="1437" d="M0 673q42 -184 274 -184q63 0 141 14l-11 -11l-30 -36q-29 -18 -40 -35l-94 -82q-41 -29 -64 -52l-59 -53l-29 -53l11 -64q29 -23 59 -35l41 -18l88 -35h17l88 -23q140 -31 268 -31q400 0 680 306q115 107 115 227q0 52 -21 106q102 126 102 211q0 173 -424 173 q-60 0 -129 -3l23 23q41 53 82 82q41 64 65 76l11 12l47 64l12 12l23 35l6 12l117 105q18 23 18 47q-216 135 -443 135q-19 0 -37 -1q-310 -47 -468 -275q-193 -176 -234 -397q-140 -111 -205 -252zM222 720q-37 37 -37 73q0 39 43 79q29 -12 47 -24h23l30 -17 q76 -18 105 -29l18 5q35 0 58 -5q24 3 42.5 3t33.5 -3q32 6 61.5 6t55.5 -6l65 17h64l12 6l70 6q27 2 51 2q48 0 83 -8q129 0 205 -23q70 -35 100 -88q-18 -12 -30 0q-94 29 -169 29q-30 -3 -54.5 -3t-45.5 3l-29 -6l-176 -23q-41 0 -76 -12h-76l-17 -6l-53 -6h-82l-12 -5 q-20 2 -38 2q-36 0 -67 -8q-18 0 -32.5 3t-20.5 8h-23l-17 12q-64 0 -112 18zM263 304l18 18l35 29q29 35 70 59q35 47 70 70l12 6q35 35 59 46h35l23 6q76 12 129 30h58l41 5l147 18q122 0 210 -47q29 -18 47 -41l-35 -29q-53 -35 -82 -64l-53 -36v-6q0 -14 12 -14 q19 0 70 38l30 12l87 52q21 -46 21 -89q0 -101 -114 -191h-18l-29 -18q-70 -6 -123 -29l-23 6q-23 0 -59 -6q-32 -2 -61 -1q-83 0 -144 12l-146 -17l-18 35q-35 18 -70 18l-187 70q-12 35 -12 58zM386 1106q94 275 340 339h24q225 0 397 -105q-6 -12 -35 -41l-47 -64 l-18 -24l-23 -35l-18 -17l-23 -36l-35 -35l-12 -17l-88 -94q-85 -15 -159 -15q-178 0 -285 91q53 41 76 88q-53 -18 -82 -53z" />
<glyph unicode="t" horiz-adv-x="1277" d="M6 1242q18 6 23 12q18 12 47 41l23 5l106 94q18 6 23 12q41 53 88 76h18l76 17q35 0 67 3t55 9q52 -13 93 -13q13 0 25 1q49 -11 87 -11h6l-17 -30l-18 -5q-23 -23 -47 -35l-29 -24q-53 -47 -94 -70l-111 -111q-12 -35 -35 -59l-47 -99l-6 -24l-52 -146q-6 -129 -6 -170 l6 -17v-47l6 -18l5 -46v-41q12 -35 12 -65l41 -128q0 -12 18 -36l11 -29l12 -12l35 -64q-70 -41 -129 -47l-5 -29q99 6 163 29q182 -167 368 -167t376 167l11 18l12 6q99 70 152 140l6 41l-41 -12q-177 -209 -357 -209q-183 0 -369 215v24l6 11l18 41q41 70 47 135l5 29 l6 65q0 64 6 99v129l6 35l6 29l6 123l6 29v100q17 83 17 140v6l24 64q51 55 111 55q23 0 47 -8q12 -23 11 -41q-11 -70 -11 -121v-8l-6 -40v-59q-12 -88 -12 -146q6 -35 6 -88l6 -41v-135l-6 -23l-6 -64v-18q0 -41 12 -70v-18l-18 -146l12 6q6 41 17 64q6 59 24 141v70 q11 65 11 110v7l6 23v47l6 24l6 87v71q6 18 6 52l6 65l6 93l5 41q6 64 18 105h18q52 -8 89 -8q22 0 39 3q92 -14 179 -14q285 0 518 148l17 35l-23 -6q-29 0 -53 -17l-23 -6l-35 -6q-70 -6 -117 -17l-18 5l-140 6l-24 6l-17 -6l-24 6l-111 6q-76 0 -129 18q-14 -1 -27 -1 q-65 0 -113 24l6 23v106q-6 12 0 23l-6 187l-18 6l-23 -35q-12 -29 -41 -53l-6 -17l-35 -64l-29 -88q23 -12 47 6q6 -26 6 -50t-6 -44h-94q-61 7 -119 7q-131 0 -244 -36l-94 -41q-23 -23 -52 -35l-35 -24l-12 -11l-35 -24l-18 -6q-23 -23 -46 -35l-170 -158q-6 -18 0 -29z M556 464q-96 206 -96 396q0 240 154 452l-11 -41v-70l6 -12q-8 -31 -8 -60q0 -14 2 -27l-12 -30v-117l-6 -35l-12 -76v-23q-5 -45 -5 -82v-12l-6 -18v-111l-6 -17q3 -35 3 -64t-3 -53z" />
<glyph unicode="u" horiz-adv-x="1824" d="M0 88q18 0 23 6q35 12 53 29l111 53l100 -18q47 -18 82 -23l193 -71l35 -17l41 -6q75 -30 141 -30q11 0 23 1q70 -12 117 -12q76 35 134 35l6 18l18 17l35 12l11 12q23 23 53 35l12 6l29 23l64 41q99 -146 235 -187q199 76 321 222l-6 18l-58 -24q-59 -47 -111 -64 l-24 17q-88 59 -134 129q-30 60 -30 120q0 10 1 21v46l5 24v82l6 23v158q2 27 2 51q0 48 -8 84l6 64v88q6 32 6 59.5t-6 51.5l-6 64l-5 18l5 17l-5 24l-6 41v35l-6 17l-6 53l-6 12l-35 105q-43 14 -84 14q-76 0 -144 -49l-24 6q0 29 6 47q-5 42 -5 78q0 55 11 97 q-18 12 -29 12q-66 -127 -66 -253q0 -20 2 -40l-12 -11l-53 -41l-12 -6q-129 -94 -199 -199l6 -35l35 12l36 29q76 129 187 193q12 -18 9 -32.5t3 -43.5l-6 -12v-76l6 -53l5 -240q-5 -75 -5 -129v-17l-6 -12q2 -16 2 -31q0 -30 -8 -56v-106l6 -29v-88l-6 -23l6 -23l-12 -41 q-6 -47 -6 -82l-6 -12l-6 -47q0 -70 -5 -117q-12 0 -26.5 3t-20.5 9h-41q-59 18 -106 23q-59 12 -99 30l-23 5l-129 47l-41 18l-135 35q181 117 252 298l12 18l35 134v53l6 12l5 210l-5 24l-6 47q6 35 0 58q-6 64 -18 94v47l-17 117l-12 17l-23 53q-41 41 -77 58 q-47 0 -87 -17l-47 -29q-29 -18 -41 -36q-53 -29 -88 -64l-64 -64q-59 -47 -88 -88q12 -18 23 -12l36 24q76 94 169 134q53 -29 94 -76l17 -35q6 -59 18 -99l6 -77l6 -11q0 -41 5 -106l6 -17v-53l12 -76l-6 -35q0 -53 -12 -129v-41l-23 -128l-12 -18l-17 -47 q-12 -35 -53 -76q-35 -29 -70 -41q-35 -29 -64 -35q-18 -6 -24 -12l-52 -29l-36 -29q-35 -18 -58 -41l-18 -6l-17 -17q-59 -35 -88 -65v-23zM1077 193v41l6 12q0 64 17 140q0 29 6 47v29q12 35 12 88l11 41q-2 29 -2 55q0 52 8 91l12 176q12 53 12 93q-2 21 -2 39q0 34 7 61 v23q-2 20 -2 38q0 37 8 68q-3 18 -3 33.5t3 30.5q-5 33 -5 62q0 43 11 78q59 -11 88 -134l6 -12v-35l6 -47l5 -41l6 -58v-35q8 -35 8 -65q0 -15 -2 -29l-6 -70v-445l-6 -17l-5 -82q2 -21 2 -40q0 -38 -8 -66q-82 -82 -182 -111q-18 18 -11 41z" />
<glyph unicode="v" horiz-adv-x="1553" d="M0 1339q12 0 41 17q41 29 64 53q59 70 123 105q146 -95 146 -349v-20q10 -43 10 -82q0 -165 -179 -269v-23l41 -12l11 -6q47 -23 71 -46q41 -18 64 -41q10 -63 10 -122q0 -106 -33 -200l-24 -24q-18 0 -23 -5l-18 -12q-29 -18 -47 -35l-11 -6l-65 -47l-17 -6l-129 -99 l-12 -35q88 29 135 82l29 17q105 -18 176 -53q82 -23 129 -58q99 -12 158 -47v-23l5 -12l-5 -18v-117l11 24q-1 14 -1 28q0 69 25 118q35 -12 64 -12l18 -5l117 -18l29 18q23 0 58 11q64 35 106 47l23 18l111 76q281 158 281 445q0 42 -6 87l6 12q0 47 12 88l-6 398 q0 140 -23 228l-12 11q-23 18 -29 36q-70 106 -161 164q-76 49 -157 48q-17 0 -33 -2l-123 -111q-41 -35 -65 -70l-134 -146q-8 35 -8 65q0 15 2 28q0 111 12 182v152q6 44 6 82t-6 70q-18 -29 -24 -47q-18 -41 -35 -70l-29 -94q-6 -47 -6 -82v-152l6 -12q-6 -70 -6 -93 q-6 -12 0 -24l-6 -17v-117q-41 -88 -76 -129l-6 12l-12 64q0 263 -93 457q-47 47 -111 52l-18 -12q-64 -35 -105 -70l-12 -6l-29 -23l-100 -94l-17 -11l-88 -88v-23zM433 309l23 29l47 58q12 12 24 41l17 30l35 64v29q12 35 12 88q0 47 6 82l-6 18l6 204q41 99 64 135l6 -29 l6 -65v-58q-1 -29 -1 -56q0 -103 18 -172l-5 -30v-35l-6 -23v-88l-6 -12q3 -20 3 -37.5t-3 -32.5v-88l-6 -17l6 -12l-18 -105l-140 52q-47 12 -82 30zM696 215l6 59l6 35l18 222q8 37 8 67q0 17 -3 32l12 176l6 29v117l6 18v82l6 17l-6 35v170l47 65l17 17l6 12l135 134 q222 -34 333 -251v-18l18 -76v-99q-6 -70 -6 -117l6 -18l6 -187q-6 -35 -6 -59l-6 -41v-64l-6 -35l-6 -29l-6 -41q-6 -35 -11 -41l-6 -41v-35q-18 -35 -18 -71l-23 -52q-71 -98 -159 -98q-28 0 -58 10l-70 6l-47 17q-117 12 -199 53z" />
<glyph unicode="w" horiz-adv-x="1957" d="M-673 1309l35 6l18 18q29 29 47 41l64 64l58 12l12 -12l18 -41l11 -12l59 -128q12 -64 29 -112v-17q6 -35 6 -59v-111l-6 -12q6 -30 6 -56t-6 -49l6 -17l-6 -18v-181q0 -53 -6 -94l-6 -88q-6 -53 -17 -93q-29 -41 -53 -59q-129 -59 -199 -158l18 -6q58 19 108 19 q11 0 21 -1l152 -47q162 -99 301 -99q172 0 307 152q-29 0 -47 -18q-152 0 -263 59l-12 5l-35 12q-76 29 -123 59h-17l-135 35l6 17l12 6q23 23 47 35q41 59 76 94l6 12l17 41v35l12 17v76l6 30q3 26 3 49.5t-3 43.5q6 35 6 64t-6 53q11 43 11 77v5v94q0 105 24 175l-24 18 q-18 152 -87 257l-47 100q-23 23 -53 23q-52 -29 -105 -70q-35 -29 -100 -70l-64 -65q-29 -23 -47 -46l-12 -12l-23 -35v-18zM-47 1309q-28 -38 -28 -45q0 -1 1 -1q6 0 45 35q-6 12 -18 11zM-12 1344q-5 -35 18 0h-18zM0 718h29q101 67 202 67q75 0 149 -37q3 -18 3 -34 t-3 -31q10 -57 10 -109q0 -105 -39 -195v-29q-70 -64 -129 -94q-23 -23 -35 -53l12 -11q222 -18 386 -135l6 -18v-46q-6 -70 -6 -117l41 152q74 -45 150 -45q132 0 266 138l-6 18q-41 -6 -65 -23q-199 41 -327 158l29 105q-12 12 -12 23v59q3 18 3 33.5t-3 30.5q6 29 0 35 q6 32 6 58.5t-6 47.5l6 29l18 12q99 12 169 46l12 12q23 23 76 53q41 41 70 58v24q-95 -44 -184 -44q-76 0 -149 32l6 111l5 29v59l6 23v164q0 18 6 24l6 146l6 41l17 17q211 -123 316 -316l24 -99l-6 -12q6 -32 6 -68.5t-6 -77.5v-100q0 -59 12 -99v-29l-6 -12 q3 -20 3 -37.5t-3 -32.5v-47l6 -23v-65q0 -35 6 -58l-6 -35l6 -18l-6 -23q3 -44 3 -81t-3 -66q12 -29 41 -17q94 64 140 140v29q12 18 12 36v41l-6 17q3 12 3 29.5t-3 40.5q3 30 3 54.5t-3 45.5v123q0 47 -6 82v70l-6 12l6 52l-6 12q8 23 8 47q0 12 -2 23v47q4 37 4 71 q0 69 -16 128q-111 222 -292 351l-70 6l-18 -6q-47 -35 -82 -53q-29 -35 -70 -52l-6 64v18q2 20 2 37q0 35 -8 62q2 13 2 26q0 38 -14 68q-18 23 -40 29l-6 -12l-18 -52l-6 -12l-35 -100v-17q12 -35 29 -53l18 -99q-6 -29 -18 -47q-35 -41 -70 -59q-70 282 -204 282 q-91 0 -211 -130l-12 -11q-29 -35 -41 -59l-70 -82v-35l23 12l12 12l23 29q18 29 47 53q29 47 65 70q47 -6 76 -24q137 -223 137 -460q0 -36 -3 -72q-29 -18 -47 -24l-70 -35q-29 -18 -47 -23l-123 -76q-64 -41 -99 -76v-18zM392 326q158 152 170 345l17 41q29 1 41 -17v-18 q-8 -35 -8 -65q0 -15 2 -28v-59q13 -62 13 -119q0 -67 -18 -127q-100 48 -195 48q-11 0 -22 -1zM556 1333q35 41 64 64l6 -18v-70l6 -35v-58l-6 -30v-105l6 -47l-6 -41q2 -21 2 -40q0 -38 -8 -65l-52 18l-6 11q3 24 3 45.5t-3 42.5l6 18l-6 23l6 17v176q-12 53 -12 94z" />
<glyph unicode="x" horiz-adv-x="1525" d="M0 -111q18 -6 29 0l18 23q53 64 93 100q6 41 30 70q35 8 67 8q102 0 173 -84l58 -24l18 6l23 18q35 29 64 41l53 41l6 11l76 77q18 29 41 41q47 -181 205 -252l70 -47q351 111 503 410q40 61 40 116q0 19 -5 36l-11 -12q-88 -205 -252 -351q-59 -12 -99 -41 q-170 76 -252 217v17q-8 35 -8 65q0 15 2 29v17l6 41v41q-1 17 -1 33q0 79 24 143q170 0 275 105q64 47 94 105q-77 -43 -153 -43q-17 0 -34 2l-164 12q-7 50 -7 97q0 198 118 360q41 76 88 117l47 -6l41 -35l41 -35q47 -59 87 -94q164 6 240 170h-82q-129 164 -257 187 l-35 -24l-53 -52l-23 -35l-24 -24l-6 -11q-53 -64 -81 -117q-70 -82 -100 -141l-12 12q0 64 -17 111l-35 12q-59 88 -135 128q-99 117 -234 141l-53 -29l-58 -47q-29 -18 -47 -35q-59 -41 -94 -76l-17 -12l-47 -47l-6 -12l-117 -111q-23 -29 -29 -64q47 18 76 41 q18 29 41 47l76 76l12 17l117 82h58l24 -17q94 -53 146 -117q23 -23 53 -30l70 -93l29 -24v-17q6 -35 6 -67.5t6 -55.5v-35q0 -53 -6 -94q-47 -23 -88 -23l-70 -47l-35 -35q-47 -35 -70 -65q-70 -53 -106 -117h24q70 76 146 117q111 0 187 -35l6 -23q0 -59 -6 -100v-23 q-6 -35 -11 -82v-64l-6 -12q0 -53 -6 -94q-53 -59 -111 -81h-59q-140 76 -275 81q-234 -164 -310 -409z" />
<glyph unicode="y" horiz-adv-x="1707" d="M0 1160q4 -1 8 -1l74 48q99 140 228 211q129 -41 182 -147q29 -41 35 -76l41 -99q6 -35 29 -88q23 -76 29 -135l-12 -11q-29 -41 -52 -65l-100 -88l12 -17q20 2 40 2q114 0 194 -61q12 -35 12 -58q41 -88 41 -164q6 -12 11 -35l6 -47l24 -117l-30 -53l-5 -17l-47 -64 l-35 -65q-23 -47 -53 -76l-100 -158l-11 -12q-29 -53 -70 -82l-12 -40l-88 -82q-47 -47 -47 -100q70 0 111 53l65 -6q59 0 99 -12l24 6h128l24 6l23 -6l35 6l223 -12q15 -15 15 -38q0 -12 -4 -26q-29 -53 -35 -100q170 135 199 322q-40 14 -76 14q-11 0 -23 -2h-217l-35 6 l-99 -6l-18 6h-58q-65 11 -110 11h-7q-12 6 -12 18q23 23 35 53l23 23l30 41q29 53 58 82l65 117q41 23 58 53l117 117q53 99 59 193l46 76q18 41 36 64l23 41l17 24l41 70l18 29l12 29l41 65l6 17q29 35 46 65l24 41l11 11l53 82q18 29 23 47l36 70l23 18l23 58l18 18 l29 58q35 47 53 88q70 59 99 117l-29 -6q-3 43 -22 43q-17 0 -48 -37l-35 12q-146 117 -293 140h-23q-30 -11 -53 -11l-64 -47l-47 -41l-41 -29l-129 -135q-23 -23 -35 -53l-12 -11l-17 -24l-24 -35q-12 -23 -29 -35l-11 12q-12 47 -36 76q-59 246 -280 281l-77 -35l-11 -12 l-24 -18l-35 -23l-146 -129q-18 -29 -47 -53q-76 -82 -111 -140zM848 932q0 23 6 58l30 88l5 41l12 35q18 152 94 258q35 23 64 35q164 -12 275 -117l70 -30l35 -17l-5 -12l-18 -29l-35 -64q-12 -18 -29 -47l-76 -129l-6 -17q-23 -29 -35 -59q-12 -18 -30 -47l-46 -76 q-18 -41 -53 -88l-135 -216l-11 23l-24 100q-6 47 -17 82q-6 53 -30 87q0 35 -17 65q-6 47 -24 76z" />
<glyph unicode="z" horiz-adv-x="1408" d="M6 250q-2 -18 -2 -33q0 -31 8 -55l58 -76q363 -217 737 -222l6 -29q0 -41 -6 -106q18 29 18 47q6 53 18 94l11 12q82 23 135 76q222 111 310 321q6 18 12 24l6 29q0 35 11 94v281q0 41 -6 70v117q-3 35 -3 64.5t3 52.5l-23 12q-35 6 -94 11l-23 6l-222 23l87 82l18 12 q41 35 70 53q18 29 47 52l12 12l41 29l52 65l6 11q23 23 35 53l35 41l18 41l17 64q-8 1 -16 1q-31 0 -54 -18l-52 6l-158 17l-18 6q-140 29 -228 29q-193 -23 -310 -152q-35 -23 -61.5 -49.5t-44.5 -38.5l-29 -29l-6 -11q-64 -64 -99 -118l-6 -40q41 0 70 23l18 17 q29 41 64 65q123 172 299 172q82 0 175 -38q-35 -88 -47 -158q-18 -35 -23 -64l-12 -129l-12 -11q-29 -29 -58 -47q-29 -6 -47 -18l-35 -23q-47 -35 -82 -53l-12 -11l-117 -88l-5 -30l76 18q135 99 275 105l11 -23v-100q0 -53 -6 -93v-117q9 -70 9 -127t-9 -101q3 -18 3 -34 t-3 -31v-41q0 -18 -5 -23q0 -59 -6 -100q1 -12 1 -23q0 -34 -13 -64l-99 11q-29 6 -47 18q-117 23 -187 64q-88 23 -147 59q-146 53 -164 187l18 23l23 36l141 146l35 29l111 82l18 29l-35 -6q-41 -35 -77 -52l-76 -65q-59 -35 -93 -76l-24 -17l-35 -29l-11 -6l-18 -18 q-47 -41 -70 -76l-59 -70zM872 28q-6 26 -6 49.5t6 43.5l6 71v58l11 53v41l6 17q0 64 12 112l6 257l6 18l6 46l5 94l12 18h35l41 -12h18q47 -12 87 -12l12 -17v-223q6 -26 6 -51t-6 -48l6 -88l-6 -35q0 -53 -6 -94l6 -11l-6 -18q0 -76 -17 -135q-35 -82 -82 -123 q-51 -18 -99 -18q-30 0 -59 7zM954 1151q-8 53 -8 104q0 87 25 165q14 1 28 1q94 0 171 -36l-11 -11q-41 -76 -100 -123l-6 -12q-29 -18 -41 -35z" />
<glyph unicode="{" horiz-adv-x="614" />
<glyph unicode="|" horiz-adv-x="294" />
<glyph unicode="}" horiz-adv-x="526" />
<glyph unicode="~" />
<glyph unicode="&#xa1;" horiz-adv-x="452" />
<glyph unicode="&#xa2;" />
<glyph unicode="&#xa3;" />
<glyph unicode="&#xa4;" horiz-adv-x="614" />
<glyph unicode="&#xa5;" />
<glyph unicode="&#xa6;" horiz-adv-x="294" />
<glyph unicode="&#xa7;" horiz-adv-x="614" />
<glyph unicode="&#xa8;" horiz-adv-x="542" />
<glyph unicode="&#xa9;" horiz-adv-x="1044" />
<glyph unicode="&#xaa;" horiz-adv-x="588" />
<glyph unicode="&#xab;" horiz-adv-x="789" />
<glyph unicode="&#xac;" horiz-adv-x="2040" />
<glyph unicode="&#xad;" horiz-adv-x="689" />
<glyph unicode="&#xae;" horiz-adv-x="1092" />
<glyph unicode="&#xaf;" horiz-adv-x="526" />
<glyph unicode="&#xb0;" horiz-adv-x="416" />
<glyph unicode="&#xb1;" />
<glyph unicode="&#xb2;" horiz-adv-x="438" />
<glyph unicode="&#xb3;" horiz-adv-x="438" />
<glyph unicode="&#xb4;" horiz-adv-x="675" />
<glyph unicode="&#xb5;" horiz-adv-x="614" />
<glyph unicode="&#xb6;" horiz-adv-x="658" />
<glyph unicode="&#xb7;" horiz-adv-x="302" />
<glyph unicode="&#xb8;" horiz-adv-x="469" />
<glyph unicode="&#xb9;" horiz-adv-x="438" />
<glyph unicode="&#xba;" horiz-adv-x="588" />
<glyph unicode="&#xbb;" horiz-adv-x="789" />
<glyph unicode="&#xbc;" horiz-adv-x="1149" />
<glyph unicode="&#xbd;" horiz-adv-x="1149" />
<glyph unicode="&#xbe;" horiz-adv-x="1149" />
<glyph unicode="&#xbf;" horiz-adv-x="829" />
<glyph unicode="&#xc0;" horiz-adv-x="890" />
<glyph unicode="&#xc1;" horiz-adv-x="890" />
<glyph unicode="&#xc2;" horiz-adv-x="890" />
<glyph unicode="&#xc3;" horiz-adv-x="890" />
<glyph unicode="&#xc4;" horiz-adv-x="890" />
<glyph unicode="&#xc5;" horiz-adv-x="890" />
<glyph unicode="&#xc6;" horiz-adv-x="1198" />
<glyph unicode="&#xc7;" horiz-adv-x="1066" />
<glyph unicode="&#xc8;" horiz-adv-x="947" />
<glyph unicode="&#xc9;" horiz-adv-x="947" />
<glyph unicode="&#xca;" horiz-adv-x="947" />
<glyph unicode="&#xcb;" horiz-adv-x="947" />
<glyph unicode="&#xcc;" horiz-adv-x="342" />
<glyph unicode="&#xcd;" horiz-adv-x="342" />
<glyph unicode="&#xce;" horiz-adv-x="342" />
<glyph unicode="&#xcf;" horiz-adv-x="342" />
<glyph unicode="&#xd0;" horiz-adv-x="969" />
<glyph unicode="&#xd1;" horiz-adv-x="895" />
<glyph unicode="&#xd2;" horiz-adv-x="1018" />
<glyph unicode="&#xd3;" horiz-adv-x="1018" />
<glyph unicode="&#xd4;" horiz-adv-x="1018" />
<glyph unicode="&#xd5;" horiz-adv-x="1018" />
<glyph unicode="&#xd6;" horiz-adv-x="1018" />
<glyph unicode="&#xd7;" />
<glyph unicode="&#xd8;" horiz-adv-x="1018" />
<glyph unicode="&#xd9;" horiz-adv-x="965" />
<glyph unicode="&#xda;" horiz-adv-x="965" />
<glyph unicode="&#xdb;" horiz-adv-x="965" />
<glyph unicode="&#xdc;" horiz-adv-x="965" />
<glyph unicode="&#xdd;" horiz-adv-x="769" />
<glyph unicode="&#xde;" horiz-adv-x="842" />
<glyph unicode="&#xdf;" horiz-adv-x="728" />
<glyph unicode="&#xe0;" horiz-adv-x="539" />
<glyph unicode="&#xe1;" horiz-adv-x="539" />
<glyph unicode="&#xe2;" horiz-adv-x="539" />
<glyph unicode="&#xe3;" horiz-adv-x="539" />
<glyph unicode="&#xe4;" horiz-adv-x="539" />
<glyph unicode="&#xe5;" horiz-adv-x="539" />
<glyph unicode="&#xe6;" horiz-adv-x="1092" />
<glyph unicode="&#xe7;" horiz-adv-x="746" />
<glyph unicode="&#xe8;" horiz-adv-x="710" />
<glyph unicode="&#xe9;" horiz-adv-x="710" />
<glyph unicode="&#xea;" horiz-adv-x="710" />
<glyph unicode="&#xeb;" horiz-adv-x="710" />
<glyph unicode="&#xec;" horiz-adv-x="342" />
<glyph unicode="&#xed;" horiz-adv-x="342" />
<glyph unicode="&#xee;" horiz-adv-x="342" />
<glyph unicode="&#xef;" horiz-adv-x="342" />
<glyph unicode="&#xf0;" horiz-adv-x="706" />
<glyph unicode="&#xf1;" horiz-adv-x="561" />
<glyph unicode="&#xf2;" horiz-adv-x="535" />
<glyph unicode="&#xf3;" horiz-adv-x="535" />
<glyph unicode="&#xf4;" horiz-adv-x="535" />
<glyph unicode="&#xf5;" horiz-adv-x="535" />
<glyph unicode="&#xf6;" horiz-adv-x="535" />
<glyph unicode="&#xf7;" />
<glyph unicode="&#xf8;" horiz-adv-x="535" />
<glyph unicode="&#xf9;" horiz-adv-x="500" />
<glyph unicode="&#xfa;" horiz-adv-x="500" />
<glyph unicode="&#xfb;" horiz-adv-x="500" />
<glyph unicode="&#xfc;" horiz-adv-x="500" />
<glyph unicode="&#xfd;" horiz-adv-x="574" />
<glyph unicode="&#xfe;" horiz-adv-x="509" />
<glyph unicode="&#xff;" horiz-adv-x="574" />
<glyph unicode="&#x152;" horiz-adv-x="1395" />
<glyph unicode="&#x153;" horiz-adv-x="1105" />
<glyph unicode="&#x178;" horiz-adv-x="769" />
<glyph unicode="&#x2c6;" horiz-adv-x="526" />
<glyph unicode="&#x2dc;" horiz-adv-x="706" />
<glyph unicode="&#x2000;" horiz-adv-x="1050" />
<glyph unicode="&#x2001;" horiz-adv-x="2101" />
<glyph unicode="&#x2002;" horiz-adv-x="1050" />
<glyph unicode="&#x2003;" horiz-adv-x="2101" />
<glyph unicode="&#x2004;" horiz-adv-x="700" />
<glyph unicode="&#x2005;" horiz-adv-x="525" />
<glyph unicode="&#x2006;" horiz-adv-x="350" />
<glyph unicode="&#x2007;" horiz-adv-x="350" />
<glyph unicode="&#x2008;" horiz-adv-x="262" />
<glyph unicode="&#x2009;" horiz-adv-x="420" />
<glyph unicode="&#x200a;" horiz-adv-x="116" />
<glyph unicode="&#x2010;" horiz-adv-x="689" />
<glyph unicode="&#x2011;" horiz-adv-x="689" />
<glyph unicode="&#x2012;" horiz-adv-x="689" />
<glyph unicode="&#x2013;" horiz-adv-x="1000" />
<glyph unicode="&#x2014;" horiz-adv-x="1307" />
<glyph unicode="&#x2018;" horiz-adv-x="346" />
<glyph unicode="&#x2019;" horiz-adv-x="351" />
<glyph unicode="&#x201a;" horiz-adv-x="342" />
<glyph unicode="&#x201c;" horiz-adv-x="500" />
<glyph unicode="&#x201d;" horiz-adv-x="438" />
<glyph unicode="&#x201e;" horiz-adv-x="588" />
<glyph unicode="&#x2022;" horiz-adv-x="566" />
<glyph unicode="&#x2026;" horiz-adv-x="1158" />
<glyph unicode="&#x202f;" horiz-adv-x="420" />
<glyph unicode="&#x2039;" horiz-adv-x="469" />
<glyph unicode="&#x203a;" horiz-adv-x="469" />
<glyph unicode="&#x205f;" horiz-adv-x="525" />
<glyph unicode="&#x2122;" horiz-adv-x="996" />
<glyph unicode="&#x25fc;" horiz-adv-x="1623" d="M0 0v1624h1624v-1624h-1624z" />
</font>
</defs>
</svg>
